<?xml version="1.0" encoding="UTF-8" standalone="yes"?>
<!DOCTYPE svg PUBLIC "-//W3C//DTD SVG 1.1//EN" "http://www.w3.org/Graphics/SVG/1.1/DTD/svg11.dtd">

<svg width="338" height="212" viewBox="0 0 338 212" xmlns="http://www.w3.org/2000/svg" xmlns:xlink="http://www.w3.org/1999/xlink" version="1.1" baseProfile="full">
    <g transform="scale(1,-1) translate(0,-212)">
        <path d="M 296.000000 1678.227417 L 2405.999512 1678.227417 C 2560.639242 1678.227417 2685.999512 1552.867147 2685.999512 1398.227417 L 2685.999512 296.000000 C 2685.999512 141.360270 2560.639242 16.000000 2405.999512 16.000000 L 296.000000 16.000000 C 141.360270 16.000000 16.000000 141.360270 16.000000 296.000000 L 16.000000 1398.227417 C 16.000000 1552.867147 141.360270 1678.227417 296.000000 1678.227417 Z M 296.000000 1598.227417 C 185.543050 1598.227417 96.000000 1508.684367 96.000000 1398.227417 L 96.000000 296.000000 C 96.000000 185.543050 185.543050 96.000000 296.000000 96.000000 L 2405.999512 96.000000 C 2516.456462 96.000000 2605.999512 185.543050 2605.999512 296.000000 L 2605.999512 1398.227417 C 2605.999512 1508.684367 2516.456462 1598.227417 2405.999512 1598.227417 L 296.000000 1598.227417 Z" transform="scale(0.125000,0.125000) translate(0.000000,0.000000)" fill="#df5c43" opacity="1.000000"></path>
        <path d="M 176.534027 315.210675 L 132.534027 374.010675 L 88.534027 315.210675 L 88.534027 258.010675 L 108.534027 231.210675 L 88.534027 204.810675 L 88.534027 147.610675 L 132.534027 88.810675 L 176.534027 147.610675 L 176.534027 204.810675 L 156.534027 231.610675 L 176.534027 258.010675 Z M 171.334027 260.010675 L 153.334027 235.610675 L 135.334027 260.010675 L 135.334027 314.410675 L 129.734027 314.410675 L 129.734027 258.010675 L 171.334027 202.810675 L 171.334027 149.210675 L 132.534027 97.610675 L 93.734027 149.210675 L 93.734027 202.810675 L 111.734027 226.810675 L 129.734027 202.810675 L 129.734027 148.410675 L 135.334027 148.410675 L 135.334027 204.810675 L 93.734027 260.010675 L 93.734027 313.210675 L 132.534027 365.210675 L 171.334027 313.210675 Z M 232.534027 376.410675 L 188.934027 317.610675 L 188.934027 88.410675 L 232.534027 147.210675 L 276.934027 88.410675 L 276.934027 317.610675 Z M 271.734027 104.410675 L 232.534027 156.010675 L 194.134027 104.410675 L 194.134027 316.010675 L 230.134027 364.410675 L 230.134027 203.610675 L 235.734027 203.610675 L 235.734027 363.210675 L 271.734027 316.010675 Z M 289.334027 120.010675 L 289.334027 341.610675 L 312.934027 373.210675 L 335.734027 341.610675 L 335.734027 120.010675 L 312.934027 88.810675 Z M 312.934027 98.010675 L 330.534027 121.610675 L 330.534027 340.010675 L 312.934027 364.010675 L 294.534027 340.010675 L 294.534027 121.610675 Z M 347.734027 318.010675 L 392.134027 376.410675 L 434.134027 318.010675 L 434.134027 259.210675 L 394.134027 205.610675 L 394.134027 150.810675 L 347.734027 88.810675 Z M 352.934027 104.810675 L 388.934027 152.810675 L 388.934027 208.010675 L 428.134027 259.210675 L 388.934027 259.210675 L 388.934027 317.210675 L 394.134027 317.210675 L 394.134027 264.810675 L 428.534027 264.810675 L 428.534027 316.010675 L 392.134027 368.010675 L 352.934027 316.010675 Z M 466.934027 120.410675 L 466.934027 256.410675 L 446.134027 256.410675 L 446.134027 315.210675 L 490.534027 373.610675 L 534.534027 315.210675 L 534.534027 256.410675 L 513.734027 256.410675 L 513.734027 120.410675 L 490.534027 89.210675 Z M 490.534027 98.410675 L 508.134027 122.410675 L 508.134027 261.610675 L 528.934027 261.610675 L 528.934027 313.210675 L 490.534027 364.810675 L 451.734027 313.210675 L 451.734027 261.610675 L 472.534027 261.610675 L 472.534027 122.410675 Z" transform="scale(0.125000,0.125000) translate(1316.000000,196.000000)" opacity="1.000000"></path>
        <path d="M 193.351700 8.838900 L 199.321400 9.336300 L 205.260200 10.292900 L 211.140700 11.717700 L 216.935500 13.619800 L 222.617000 16.008200 L 228.158000 18.891900 L 232.925000 21.898100 L 238.206000 18.622100 L 243.748100 15.787100 L 249.426500 13.444800 L 255.214200 11.585900 L 261.084000 10.201400 L 267.008900 9.282300 L 272.961800 8.819500 L 278.915500 8.803900 L 284.843000 9.226300 L 290.717100 10.077700 L 295.717000 11.174900 L 295.736200 11.170100 L 300.161500 10.329800 L 304.620200 9.740300 L 309.100400 9.401500 L 313.590300 9.313300 L 318.078200 9.475600 L 322.552200 9.888400 L 327.000500 10.551400 L 330.401700 11.255600 L 334.138100 10.444600 L 340.023900 9.605900 L 345.962100 9.197500 L 351.925300 9.228700 L 357.886500 9.708600 L 363.818300 10.646100 L 369.693400 12.050400 L 375.484600 13.930500 L 381.164600 16.295500 L 386.706200 19.154400 L 392.082100 22.516400 L 397.265000 26.390600 L 402.227600 30.785900 L 406.942800 35.711400 L 411.383200 41.176400 L 419.242400 51.678000 L 427.129600 41.250900 L 430.217800 37.412700 L 433.479800 33.823600 L 436.903700 30.483600 L 440.478000 27.392700 L 444.191100 24.550800 L 448.031200 21.957900 L 451.986800 19.613900 L 456.046100 17.518700 L 460.197600 15.672400 L 464.429700 14.074900 L 468.730500 12.726100 L 473.088600 11.626000 L 477.492300 10.774500 L 481.929800 10.171500 L 486.389700 9.817200 L 490.860100 9.711300 L 495.329600 9.853900 L 499.786400 10.244800 L 504.218800 10.884100 L 508.615300 11.771700 L 512.964200 12.907600 L 517.253900 14.291600 L 521.472700 15.923800 L 525.608900 17.804100 L 529.650900 19.932500 L 533.587100 22.308900 L 537.405900 24.933200 L 541.095500 27.805500 L 544.644300 30.925600 L 548.040700 34.293600 L 551.273100 37.909300 L 554.329700 41.772800 L 577.529700 72.972800 L 581.132300 78.247500 L 584.285500 83.767200 L 586.979900 89.502900 L 589.205900 95.425800 L 590.953800 101.506900 L 592.214200 107.717300 L 592.977400 114.028200 L 593.234000 120.410600 L 593.234000 202.802100 L 593.381300 202.956600 L 595.880000 205.841200 L 598.240100 208.844500 L 600.456600 211.961400 L 602.524500 215.187000 L 604.438800 218.516200 L 606.194400 221.944100 L 607.786500 225.465600 L 609.209900 229.075900 L 610.459800 232.769800 L 611.531100 236.542300 L 612.418800 240.388600 L 613.118000 244.303600 L 613.623500 248.282200 L 613.930500 252.319600 L 614.034000 256.410600 L 614.034000 315.210600 L 613.772300 321.656500 L 612.993900 328.028800 L 611.708700 334.297600 L 609.926700 340.433200 L 607.657900 346.406000 L 604.912100 352.186200 L 601.699300 357.744000 L 598.029400 363.049700 L 554.029400 421.449700 L 550.965600 425.273600 L 547.729000 428.851600 L 544.331100 432.183600 L 540.783500 435.269800 L 537.097500 438.109900 L 533.284700 440.704100 L 529.356600 443.052200 L 525.324600 445.154300 L 521.200200 447.010400 L 516.994900 448.620300 L 512.720200 449.984100 L 508.387500 451.101800 L 504.008400 451.973200 L 499.594300 452.598500 L 495.156700 452.977600 L 490.707100 453.110400 L 486.256900 452.997000 L 481.817700 452.637200 L 477.400900 452.031200 L 473.018100 451.178800 L 468.680600 450.080000 L 464.400000 448.734800 L 460.187700 447.143200 L 456.055300 445.305200 L 452.014100 443.220700 L 448.075800 440.889600 L 444.251800 438.312100 L 443.120700 437.448300 L 439.874200 440.048700 L 436.063400 442.743400 L 432.130300 445.187800 L 428.086700 447.382000 L 423.944600 449.325600 L 419.715800 451.018600 L 415.412300 452.460800 L 411.045900 453.651900 L 406.628500 454.591900 L 402.172100 455.280700 L 397.688600 455.718000 L 393.189800 455.903600 L 388.687700 455.837500 L 384.194100 455.519500 L 379.721000 454.949300 L 375.280300 454.127000 L 370.883800 453.052200 L 366.543400 451.724800 L 362.271200 450.144800 L 358.078900 448.311800 L 353.978400 446.225900 L 349.981800 443.886700 L 349.732400 443.720100 L 348.644500 444.305700 L 344.480400 446.241600 L 340.229900 447.924700 L 335.905100 449.354900 L 331.518100 450.532000 L 327.080800 451.455900 L 322.605300 452.126600 L 318.103600 452.544000 L 313.587900 452.707900 L 309.070000 452.618300 L 304.562100 452.275100 L 300.076200 451.678100 L 295.624300 450.827200 L 291.218400 449.722400 L 286.870700 448.363600 L 282.593100 446.750600 L 278.397700 444.883500 L 275.472700 443.370400 L 275.062800 443.647400 L 271.103400 445.995500 L 267.040000 448.094200 L 262.884100 449.943500 L 258.647500 451.543500 L 254.341900 452.894100 L 249.978900 453.995500 L 245.570300 454.847800 L 241.127700 455.450900 L 236.662800 455.804900 L 232.187300 455.909900 L 227.712900 455.765900 L 223.251200 455.372900 L 218.814100 454.731100 L 214.413000 453.840400 L 210.059800 452.701000 L 205.766100 451.312900 L 201.543700 449.676000 L 197.404100 447.790600 L 193.359100 445.656500 L 189.420400 443.273900 L 185.599600 440.642900 L 181.908500 437.763400 L 181.050200 437.007100 L 179.187200 438.447400 L 175.355000 441.061700 L 171.406000 443.427000 L 167.351800 445.543300 L 163.204100 447.410600 L 158.974500 449.029000 L 154.674900 450.398400 L 150.316800 451.518800 L 145.912000 452.390200 L 141.472200 453.012700 L 137.008900 453.386100 L 132.534000 453.510600 L 128.059000 453.386100 L 123.595800 453.012700 L 119.155900 452.390200 L 114.751100 451.518800 L 110.393000 450.398400 L 106.093400 449.029000 L 101.863900 447.410600 L 97.716200 445.543300 L 93.662000 443.427000 L 89.713000 441.061700 L 85.880800 438.447400 L 82.177200 435.584100 L 78.613800 432.471900 L 75.202400 429.110700 L 71.954600 425.500500 L 68.882100 421.641300 L 24.882100 362.841300 L 21.247300 357.551600 L 18.065500 352.013600 L 15.346500 346.256500 L 13.100000 340.309700 L 11.335700 334.202300 L 10.063500 327.963900 L 9.293000 321.623500 L 9.034000 315.210600 L 9.034000 258.010600 L 9.291900 251.610800 L 10.059300 245.283200 L 11.326400 239.056800 L 13.083600 232.960800 L 13.665100 231.418200 L 13.174600 230.132800 L 11.378200 223.974400 L 10.082600 217.681100 L 9.297800 211.283200 L 9.034000 204.810600 L 9.034000 147.610600 L 9.293000 141.197700 L 10.063500 134.857400 L 11.335700 128.618900 L 13.100000 122.511600 L 15.346500 116.564800 L 18.065500 110.807700 L 21.247300 105.269600 L 24.882100 99.979900 L 68.882100 41.179900 L 71.954600 37.320800 L 75.202400 33.710600 L 78.613800 30.349300 L 82.177200 27.237100 L 85.880800 24.373900 L 89.713000 21.759600 L 93.662000 19.394300 L 97.716200 17.278000 L 101.863900 15.410600 L 106.093400 13.792200 L 110.393000 12.422900 L 114.751100 11.302500 L 119.155900 10.431000 L 123.595800 9.808600 L 128.059000 9.435100 L 132.534000 9.310600 L 137.008900 9.435100 L 141.472200 9.808600 L 145.912000 10.431000 L 150.316800 11.302500 L 154.674900 12.422900 L 158.974500 13.792200 L 160.291400 14.296100 L 164.000000 12.921900 L 169.712700 11.259500 L 175.531600 10.010900 L 181.429400 9.185300 L 187.378500 8.791600 Z M 347.734000 318.010600 L 392.134000 376.410600 L 434.134000 318.010600 L 434.134000 259.210600 L 394.134000 205.610600 L 394.134000 150.810600 L 347.734000 88.810600 Z M 232.534000 147.210600 L 188.934000 88.410600 L 188.934000 317.610600 L 232.534000 376.410600 L 276.934000 317.610600 L 276.934000 88.410600 Z M 88.534000 147.610600 L 88.534000 204.810600 L 108.534000 231.210600 L 88.534000 258.010600 L 88.534000 315.210600 L 132.534000 374.010600 L 176.534000 315.210600 L 176.534000 258.010600 L 156.534000 231.610600 L 176.534000 204.810600 L 176.534000 147.610600 L 132.534000 88.810600 Z M 466.934000 120.410600 L 466.934000 256.410600 L 446.134000 256.410600 L 446.134000 315.210600 L 490.534000 373.610600 L 534.534000 315.210600 L 534.534000 256.410600 L 513.734000 256.410600 L 513.734000 120.410600 L 490.534000 89.210600 Z M 289.334000 120.010600 L 289.334000 341.610600 L 312.934000 373.210600 L 335.734000 341.610600 L 335.734000 120.010600 L 312.934000 88.810600 Z M 388.934000 152.810600 L 388.934000 208.010600 L 428.134000 259.210600 L 388.934000 259.210600 L 388.934000 317.210600 L 394.134000 317.210600 L 394.134000 264.810600 L 428.534000 264.810600 L 428.534000 316.010600 L 392.134000 368.010600 L 352.934000 316.010600 L 352.934000 104.810600 Z M 171.334000 149.210600 L 171.334000 202.810600 L 129.734000 258.010600 L 129.734000 314.410600 L 135.334000 314.410600 L 135.334000 260.010600 L 153.334000 235.610600 L 171.334000 260.010600 L 171.334000 313.210600 L 132.534000 365.210600 L 93.734000 313.210600 L 93.734000 260.010600 L 135.334000 204.810600 L 135.334000 148.410600 L 129.734000 148.410600 L 129.734000 202.810600 L 111.734000 226.810600 L 93.734000 202.810600 L 93.734000 149.210600 L 132.534000 97.610600 Z M 508.134000 122.410600 L 508.134000 261.610600 L 528.934000 261.610600 L 528.934000 313.210600 L 490.534000 364.810600 L 451.734000 313.210600 L 451.734000 261.610600 L 472.534000 261.610600 L 472.534000 122.410600 L 490.534000 98.410600 Z M 271.734000 316.010600 L 235.734000 363.210600 L 235.734000 203.610600 L 230.134000 203.610600 L 230.134000 364.410600 L 194.134000 316.010600 L 194.134000 104.410600 L 232.534000 156.010600 L 271.734000 104.410600 Z M 330.534000 121.610600 L 330.534000 340.010600 L 312.934000 364.010600 L 294.534000 340.010600 L 294.534000 121.610600 L 312.934000 98.010600 Z" transform="scale(0.125000,0.125000) translate(1316.000000,196.000000)" fill="#df5c43" opacity="1.000000"></path>
        <path d="M 88.465521 317.610724 L 132.865521 376.010724 L 174.865521 317.610724 L 174.865521 258.810724 L 134.865521 205.210724 L 134.865521 150.410724 L 88.465521 88.410724 Z M 93.665521 104.410724 L 129.665521 152.410724 L 129.665521 207.610724 L 168.865521 258.810724 L 129.665521 258.810724 L 129.665521 316.810724 L 134.865521 316.810724 L 134.865521 264.410724 L 169.265521 264.410724 L 169.265521 315.610724 L 132.865521 367.610724 L 93.665521 315.610724 Z M 187.265521 147.210724 L 187.265521 314.810724 L 231.265521 373.610724 L 275.265521 314.810724 L 275.265521 147.210724 L 231.265521 88.410724 Z M 231.265521 97.210724 L 270.065521 148.810724 L 270.065521 312.810724 L 231.265521 364.410724 L 192.465521 312.810724 L 192.465521 148.810724 Z M 228.465521 148.010724 L 228.465521 313.610724 L 234.065521 313.610724 L 234.065521 148.010724 Z M 375.665521 314.810724 L 331.665521 373.610724 L 287.665521 314.810724 L 287.665521 147.210724 L 331.665521 88.410724 L 375.665521 147.210724 L 375.665521 204.010724 L 355.665521 230.810724 L 375.665521 257.610724 Z M 370.465521 259.610724 L 348.865521 230.810724 L 370.465521 202.410724 L 370.465521 148.810724 L 334.465521 100.810724 L 334.465521 203.210724 L 328.865521 203.210724 L 328.865521 100.810724 L 292.865521 148.810724 L 292.865521 312.810724 L 331.665521 364.410724 L 370.465521 312.810724 Z M 328.865521 258.410724 L 334.465521 258.410724 L 334.465521 313.610724 L 328.865521 313.610724 Z" transform="scale(0.125000,0.125000) translate(763.000000,196.000000)" opacity="1.000000"></path>
        <path d="M 92.656800 8.828800 L 98.618000 9.308600 L 104.549800 10.246100 L 110.424900 11.650400 L 116.216100 13.530500 L 121.896100 15.895500 L 127.437700 18.754500 L 132.813600 22.116500 L 137.996500 25.990600 L 142.959100 30.385900 L 147.674300 35.311500 L 152.114700 40.776400 L 159.865900 51.133600 L 167.613500 40.780000 L 170.686100 36.920800 L 173.933900 33.310600 L 177.345300 29.949400 L 180.908700 26.837200 L 184.612300 23.973900 L 188.444500 21.359600 L 192.393500 18.994300 L 196.447700 16.878000 L 200.595400 15.010700 L 204.824900 13.392300 L 209.124500 12.022900 L 213.482600 10.902500 L 217.887400 10.031100 L 222.327300 9.408600 L 226.790500 9.035200 L 231.265500 8.910700 L 235.740400 9.035200 L 240.203700 9.408600 L 244.643500 10.031100 L 249.048300 10.902500 L 253.406400 12.022900 L 257.706000 13.392300 L 261.935500 15.010700 L 266.083200 16.878000 L 270.137500 18.994300 L 274.086500 21.359600 L 277.918600 23.973900 L 281.465500 26.716000 L 285.012300 23.973900 L 288.844500 21.359600 L 292.793500 18.994300 L 296.847700 16.878000 L 300.995400 15.010700 L 305.224900 13.392300 L 309.524500 12.022900 L 313.882600 10.902500 L 318.287400 10.031100 L 322.727300 9.408600 L 327.190500 9.035200 L 331.665500 8.910700 L 336.140400 9.035200 L 340.603700 9.408600 L 345.043500 10.031100 L 349.448300 10.902500 L 353.806400 12.022900 L 358.106000 13.392300 L 362.335500 15.010700 L 366.483200 16.878000 L 370.537500 18.994300 L 374.486500 21.359600 L 378.318600 23.973900 L 382.022300 26.837200 L 385.585600 29.949400 L 388.997100 33.310600 L 392.244900 36.920800 L 395.317400 40.780000 L 439.317400 99.580000 L 442.952200 104.869700 L 446.134000 110.407700 L 448.853000 116.164800 L 451.099500 122.111600 L 452.863700 128.219000 L 454.136000 134.457400 L 454.906500 140.797800 L 455.165500 147.210700 L 455.165500 204.010700 L 454.907500 210.410500 L 454.140200 216.738100 L 452.873000 222.964500 L 451.115800 229.060500 L 450.456100 230.810700 L 451.115800 232.560800 L 452.873000 238.656800 L 454.140200 244.883200 L 454.907500 251.210900 L 455.165500 257.610700 L 455.165500 314.810700 L 454.906500 321.223600 L 454.136000 327.563900 L 452.863700 333.802400 L 451.099500 339.909700 L 448.853000 345.856500 L 446.134000 351.613600 L 442.952200 357.151700 L 439.317400 362.441400 L 395.317400 421.241400 L 392.244900 425.100500 L 388.997100 428.710700 L 385.585600 432.072000 L 382.022300 435.184200 L 378.318600 438.047400 L 374.486500 440.661700 L 370.537500 443.027000 L 366.483200 445.143300 L 362.335500 447.010700 L 358.106000 448.629100 L 353.806400 449.998400 L 349.448300 451.118800 L 345.043500 451.990300 L 340.603700 452.612700 L 336.140400 452.986200 L 331.665500 453.110700 L 327.190500 452.986200 L 322.727300 452.612700 L 318.287400 451.990300 L 313.882600 451.118800 L 309.524500 449.998400 L 305.224900 448.629100 L 300.995400 447.010700 L 296.847700 445.143300 L 292.793500 443.027000 L 288.844500 440.661700 L 285.012300 438.047400 L 281.465500 435.305400 L 277.918600 438.047400 L 274.086500 440.661700 L 270.137500 443.027000 L 266.083200 445.143300 L 261.935500 447.010700 L 257.706000 448.629100 L 253.406400 449.998400 L 249.048300 451.118800 L 244.643500 451.990300 L 240.203700 452.612700 L 235.740400 452.986200 L 231.265500 453.110700 L 226.790500 452.986200 L 222.327300 452.612700 L 217.887400 451.990300 L 213.482600 451.118800 L 209.124500 449.998400 L 204.824900 448.629100 L 200.595400 447.010700 L 196.447700 445.143300 L 192.393500 443.027000 L 188.444500 440.661700 L 184.612300 438.047400 L 183.590900 437.257700 L 180.605700 439.648700 L 176.794900 442.343400 L 172.861800 444.787900 L 168.818200 446.982000 L 164.676100 448.925700 L 160.447300 450.618700 L 156.143700 452.060800 L 151.777400 453.252000 L 147.360000 454.192000 L 142.903600 454.880700 L 138.420100 455.318000 L 133.921300 455.503700 L 129.419200 455.437600 L 124.925600 455.119500 L 120.452500 454.549400 L 116.011700 453.727000 L 111.615300 452.652200 L 107.274900 451.324900 L 103.002700 449.744800 L 98.810400 447.911900 L 94.709900 445.825900 L 90.713300 443.486700 L 86.832300 440.894200 L 83.078900 438.048200 L 79.464900 434.948500 L 76.002400 431.595000 L 72.703100 427.987400 L 69.578900 424.125800 L 25.178900 365.725800 L 21.462300 360.399000 L 18.208100 354.815100 L 15.426500 349.004500 L 13.127800 342.997400 L 11.322100 336.824100 L 10.019700 330.515100 L 9.230700 324.100500 L 8.965500 317.610700 L 8.965500 88.410700 L 9.246100 81.374800 L 10.069900 74.606100 L 11.409600 68.113600 L 13.237800 61.906500 L 15.527400 55.993700 L 18.251100 50.384400 L 21.381600 45.087600 L 24.891600 40.112400 L 28.754000 35.467900 L 32.941300 31.163200 L 37.426400 27.207200 L 42.182100 23.609200 L 47.180900 20.378100 L 52.395800 17.523100 L 57.799300 15.053100 L 63.364300 12.977400 L 69.063500 11.304900 L 74.869600 10.044700 L 80.755400 9.205900 L 86.693500 8.797600 Z M 88.465500 317.610700 L 132.865500 376.010700 L 174.865500 317.610700 L 174.865500 258.810700 L 134.865500 205.210700 L 134.865500 150.410700 L 88.465500 88.410700 Z M 287.665500 147.210700 L 287.665500 314.810700 L 331.665500 373.610700 L 375.665500 314.810700 L 375.665500 257.610700 L 355.665500 230.810700 L 375.665500 204.010700 L 375.665500 147.210700 L 331.665500 88.410700 Z M 187.265500 147.210700 L 187.265500 314.810700 L 231.265500 373.610700 L 275.265500 314.810700 L 275.265500 147.210700 L 231.265500 88.410700 Z M 129.665500 152.410700 L 129.665500 207.610700 L 168.865500 258.810700 L 129.665500 258.810700 L 129.665500 316.810700 L 134.865500 316.810700 L 134.865500 264.410700 L 169.265500 264.410700 L 169.265500 315.610700 L 132.865500 367.610700 L 93.665500 315.610700 L 93.665500 104.410700 Z M 370.465500 148.810700 L 370.465500 202.410700 L 348.865500 230.810700 L 370.465500 259.610700 L 370.465500 312.810700 L 331.665500 364.410700 L 292.865500 312.810700 L 292.865500 148.810700 L 328.865500 100.810700 L 328.865500 203.210700 L 334.465500 203.210700 L 334.465500 100.810700 Z M 270.065500 148.810700 L 270.065500 312.810700 L 231.265500 364.410700 L 192.465500 312.810700 L 192.465500 148.810700 L 231.265500 97.210700 Z M 328.865500 258.410700 L 328.865500 313.610700 L 334.465500 313.610700 L 334.465500 258.410700 Z M 228.465500 148.010700 L 228.465500 313.610700 L 234.065500 313.610700 L 234.065500 148.010700 Z" transform="scale(0.125000,0.125000) translate(763.000000,196.000000)" fill="#df5c43" opacity="1.000000"></path>
        <path d="M 264.599725 540.816718 L 176.599725 658.416718 L 88.599725 540.816718 L 88.599725 426.416718 L 128.599725 372.816718 L 88.599725 320.016718 L 88.599725 205.616718 L 176.599725 88.016718 L 264.599725 205.616718 L 264.599725 320.016718 L 224.599725 373.616718 L 264.599725 426.416718 Z M 254.199725 430.416718 L 218.199725 381.616718 L 182.199725 430.416718 L 182.199725 539.216718 L 170.999725 539.216718 L 170.999725 426.416718 L 254.199725 316.016718 L 254.199725 208.816718 L 176.599725 105.616718 L 98.999725 208.816718 L 98.999725 316.016718 L 134.999725 364.016718 L 170.999725 316.016718 L 170.999725 207.216718 L 182.199725 207.216718 L 182.199725 320.016718 L 98.999725 430.416718 L 98.999725 536.816718 L 176.599725 640.816718 L 254.199725 536.816718 Z M 377.399725 656.816718 L 289.399725 540.016718 L 289.399725 205.616718 L 377.399725 88.016718 L 465.399725 205.616718 L 465.399725 540.016718 Z M 454.999725 208.816718 L 377.399725 105.616718 L 299.799725 208.816718 L 299.799725 536.016718 L 371.799725 632.016718 L 371.799725 207.216718 L 382.999725 207.216718 L 382.999725 632.016718 L 454.999725 536.016718 Z M 490.199725 547.216718 L 578.199725 664.816718 L 666.199725 547.216718 L 666.199725 432.816718 L 583.799725 322.416718 L 583.799725 208.816718 L 490.199725 88.016718 Z M 500.599725 119.216718 L 572.599725 212.816718 L 572.599725 326.416718 L 655.799725 436.816718 L 655.799725 543.216718 L 578.199725 646.416718 L 500.599725 543.216718 Z M 572.599725 435.216718 L 572.599725 545.616718 L 583.799725 545.616718 L 583.799725 435.216718 Z M 690.999725 205.616718 L 690.999725 319.216718 L 730.999725 372.816718 L 690.999725 425.616718 L 690.999725 540.016718 L 778.999725 656.816718 L 866.999725 540.016718 L 866.999725 425.616718 L 826.999725 372.816718 L 866.999725 319.216718 L 866.999725 205.616718 L 778.999725 88.016718 Z M 778.999725 105.616718 L 856.599725 208.816718 L 856.599725 315.216718 L 820.599725 363.216718 L 784.599725 315.216718 L 784.599725 207.216718 L 773.399725 207.216718 L 773.399725 319.216718 L 813.399725 372.816718 L 773.399725 425.616718 L 773.399725 537.616718 L 784.599725 537.616718 L 784.599725 429.616718 L 820.599725 381.616718 L 856.599725 429.616718 L 856.599725 536.016718 L 778.999725 639.216718 L 701.399725 536.016718 L 701.399725 429.616718 L 744.599725 372.816718 L 701.399725 315.216718 L 701.399725 208.816718 Z M 1067.799725 540.816718 L 979.799725 658.416718 L 891.799725 540.816718 L 891.799725 205.616718 L 979.799725 88.016718 L 1067.799725 205.616718 L 1067.799725 319.216718 L 1027.799725 372.816718 L 1067.799725 426.416718 Z M 1057.399725 430.416718 L 1014.199725 372.816718 L 1057.399725 316.016718 L 1057.399725 208.816718 L 985.399725 112.816718 L 985.399725 317.616718 L 974.199725 317.616718 L 974.199725 112.816718 L 902.199725 208.816718 L 902.199725 536.816718 L 979.799725 640.016718 L 1057.399725 536.816718 Z M 974.199725 428.016718 L 985.399725 428.016718 L 985.399725 538.416718 L 974.199725 538.416718 Z M 1268.599725 540.816718 L 1180.599725 658.416718 L 1092.599725 540.816718 L 1092.599725 426.416718 L 1132.599725 372.816718 L 1092.599725 320.016718 L 1092.599725 205.616718 L 1180.599725 88.016718 L 1268.599725 205.616718 L 1268.599725 320.016718 L 1228.599725 373.616718 L 1268.599725 426.416718 Z M 1258.199725 430.416718 L 1222.199725 381.616718 L 1186.199725 430.416718 L 1186.199725 539.216718 L 1174.999725 539.216718 L 1174.999725 426.416718 L 1258.199725 316.016718 L 1258.199725 208.816718 L 1180.599725 105.616718 L 1102.999725 208.816718 L 1102.999725 316.016718 L 1138.999725 364.016718 L 1174.999725 316.016718 L 1174.999725 207.216718 L 1186.199725 207.216718 L 1186.199725 320.016718 L 1102.999725 430.416718 L 1102.999725 536.816718 L 1180.599725 640.816718 L 1258.199725 536.816718 Z M 1334.199725 151.216718 L 1334.199725 423.216718 L 1292.599725 423.216718 L 1292.599725 540.816718 L 1381.399725 657.616718 L 1469.399725 540.816718 L 1469.399725 423.216718 L 1427.799725 423.216718 L 1427.799725 151.216718 L 1381.399725 88.816718 Z M 1381.399725 107.216718 L 1416.599725 155.216718 L 1416.599725 433.616718 L 1458.199725 433.616718 L 1458.199725 536.816718 L 1381.399725 640.016718 L 1303.799725 536.816718 L 1303.799725 433.616718 L 1345.399725 433.616718 L 1345.399725 155.216718 Z M 1670.199725 540.816718 L 1582.199725 658.416718 L 1494.199725 540.816718 L 1494.199725 205.616718 L 1582.199725 88.016718 L 1670.199725 205.616718 L 1670.199725 319.216718 L 1630.199725 372.816718 L 1670.199725 426.416718 Z M 1659.799725 430.416718 L 1616.599725 372.816718 L 1659.799725 316.016718 L 1659.799725 208.816718 L 1587.799725 112.816718 L 1587.799725 317.616718 L 1576.599725 317.616718 L 1576.599725 112.816718 L 1504.599725 208.816718 L 1504.599725 536.816718 L 1582.199725 640.016718 L 1659.799725 536.816718 Z M 1576.599725 428.016718 L 1587.799725 428.016718 L 1587.799725 538.416718 L 1576.599725 538.416718 Z M 1694.999725 150.416718 L 1694.999725 593.616718 L 1742.199725 656.816718 L 1787.799725 593.616718 L 1787.799725 150.416718 L 1742.199725 88.016718 Z M 1742.199725 106.416718 L 1777.399725 153.616718 L 1777.399725 590.416718 L 1742.199725 638.416718 L 1705.399725 590.416718 L 1705.399725 153.616718 Z M 1900.599725 664.016718 L 1812.599725 546.416718 L 1812.599725 88.016718 L 1900.599725 204.816718 L 1988.599725 88.016718 L 1988.599725 546.416718 Z M 1977.399725 120.016718 L 1905.399725 216.816718 L 1905.399725 544.816718 L 1894.999725 544.816718 L 1894.999725 216.016718 L 1822.999725 120.016718 L 1822.999725 543.216718 L 1900.599725 645.616718 L 1977.399725 543.216718 Z M 2189.399725 536.816718 L 2101.399725 654.416718 L 2012.599725 536.816718 L 2012.599725 203.216718 L 2098.199725 88.816718 L 2189.399725 88.816718 L 2189.399725 375.216718 L 2111.799725 375.216718 L 2189.399725 478.416718 Z M 2178.199725 481.616718 L 2106.199725 385.616718 L 2106.199725 536.016718 L 2095.799725 536.016718 L 2095.799725 205.616718 L 2106.199725 205.616718 L 2106.199725 364.816718 L 2178.199725 364.816718 L 2178.199725 100.016718 L 2103.799725 100.016718 L 2023.799725 206.416718 L 2023.799725 533.616718 L 2101.399725 636.816718 L 2178.199725 533.616718 Z" transform="scale(0.125000,0.125000) translate(212.000000,745.000000)" opacity="1.000000"></path>
        <path d="M 499.464400 8.815900 L 505.369000 9.681800 L 511.223100 11.008900 L 517.000100 12.806400 L 522.673400 15.083300 L 528.216300 17.848800 L 533.602200 21.112000 L 538.804400 24.882000 L 543.796300 29.167800 L 548.551300 33.978700 L 553.042700 39.323700 L 636.013400 146.405600 L 715.347800 40.386000 L 718.420300 36.526800 L 721.668100 32.916600 L 725.079500 29.555400 L 728.642900 26.443200 L 732.346500 23.579900 L 736.178700 20.965600 L 740.127700 18.600300 L 744.181900 16.484000 L 748.329600 14.616700 L 752.559100 12.998300 L 756.858700 11.628900 L 761.216800 10.508500 L 765.621600 9.637100 L 770.061500 9.014600 L 774.524700 8.641200 L 778.999700 8.516700 L 783.474600 8.641200 L 787.937900 9.014600 L 792.377700 9.637100 L 796.782500 10.508500 L 801.140600 11.628900 L 805.440200 12.998300 L 809.669800 14.616700 L 813.817500 16.484000 L 817.871700 18.600300 L 821.820700 20.965600 L 825.652900 23.579900 L 829.356500 26.443200 L 832.919800 29.555400 L 836.331300 32.916600 L 839.579100 36.526800 L 842.651600 40.386000 L 879.399700 89.494800 L 916.147800 40.386000 L 919.220300 36.526800 L 922.468100 32.916600 L 925.879500 29.555400 L 929.442900 26.443200 L 933.146500 23.579900 L 936.978700 20.965600 L 940.927700 18.600300 L 944.981900 16.484000 L 949.129600 14.616700 L 953.359100 12.998300 L 957.658700 11.628900 L 962.016800 10.508500 L 966.421600 9.637100 L 970.861500 9.014600 L 975.324700 8.641200 L 979.799700 8.516700 L 984.274600 8.641200 L 988.737900 9.014600 L 993.177700 9.637100 L 997.582500 10.508500 L 1001.940600 11.628900 L 1006.240200 12.998300 L 1010.469800 14.616700 L 1014.617500 16.484000 L 1018.671700 18.600300 L 1022.620700 20.965600 L 1026.452900 23.579900 L 1030.156500 26.443200 L 1033.719800 29.555400 L 1037.131300 32.916600 L 1040.379100 36.526800 L 1043.451600 40.386000 L 1080.199700 89.494800 L 1116.947800 40.386000 L 1120.020300 36.526800 L 1123.268100 32.916600 L 1126.679500 29.555400 L 1130.242900 26.443200 L 1133.946500 23.579900 L 1137.778700 20.965600 L 1141.727700 18.600300 L 1145.781900 16.484000 L 1149.929600 14.616700 L 1154.159100 12.998300 L 1158.458700 11.628900 L 1162.816800 10.508500 L 1167.221600 9.637100 L 1171.661500 9.014600 L 1176.124700 8.641200 L 1180.599700 8.516700 L 1185.074600 8.641200 L 1189.537900 9.014600 L 1193.977700 9.637100 L 1198.382500 10.508500 L 1202.740600 11.628900 L 1207.040200 12.998300 L 1211.269800 14.616700 L 1215.417500 16.484000 L 1219.471700 18.600300 L 1223.420700 20.965600 L 1227.252900 23.579900 L 1230.956500 26.443200 L 1234.519800 29.555400 L 1237.931300 32.916600 L 1241.179100 36.526800 L 1244.251600 40.386000 L 1281.101800 89.631300 L 1317.995300 40.856900 L 1321.083500 37.018700 L 1324.345500 33.429600 L 1327.769400 30.089700 L 1331.343700 26.998700 L 1335.056800 24.156800 L 1338.896900 21.563900 L 1342.852500 19.219900 L 1346.911800 17.124800 L 1351.063300 15.278500 L 1355.295400 13.680900 L 1359.596200 12.332100 L 1363.954300 11.232000 L 1368.358000 10.380500 L 1372.795500 9.777600 L 1377.255400 9.423200 L 1381.725800 9.317300 L 1386.195300 9.459900 L 1390.652100 9.850800 L 1395.084500 10.490100 L 1399.481000 11.377700 L 1403.829900 12.513600 L 1408.119600 13.897600 L 1412.338400 15.529900 L 1416.474600 17.410200 L 1420.516600 19.538500 L 1424.452800 21.914900 L 1428.271600 24.539300 L 1431.961200 27.411500 L 1435.510000 30.531700 L 1438.906400 33.899600 L 1442.138800 37.515300 L 1445.195400 41.378800 L 1481.385500 90.048300 L 1518.547800 40.386000 L 1521.620300 36.526800 L 1524.868100 32.916600 L 1528.279500 29.555400 L 1531.842900 26.443200 L 1535.546500 23.579900 L 1539.378700 20.965600 L 1543.327700 18.600300 L 1547.381900 16.484000 L 1551.529600 14.616700 L 1555.759100 12.998300 L 1560.058700 11.628900 L 1564.416800 10.508500 L 1568.821600 9.637100 L 1573.261500 9.014600 L 1577.724700 8.641200 L 1582.199700 8.516700 L 1586.674600 8.641200 L 1591.137900 9.014600 L 1595.577700 9.637100 L 1599.982500 10.508500 L 1604.340600 11.628900 L 1608.640200 12.998300 L 1612.869800 14.616700 L 1617.017500 16.484000 L 1621.071700 18.600300 L 1625.020700 20.965600 L 1628.852900 23.579900 L 1632.556500 26.443200 L 1636.119800 29.555400 L 1639.531300 32.916600 L 1642.779100 36.526800 L 1645.851600 40.386000 L 1662.110900 62.114300 L 1678.795300 40.056900 L 1681.899800 36.199500 L 1685.179400 32.594100 L 1688.622100 29.240500 L 1692.216100 26.138700 L 1695.949800 23.288500 L 1699.811200 20.690000 L 1703.788600 18.342900 L 1707.870100 16.247100 L 1712.044000 14.402700 L 1716.298500 12.809500 L 1720.621700 11.467300 L 1725.001900 10.376100 L 1729.427200 9.535800 L 1733.885900 8.946400 L 1738.366100 8.607600 L 1742.856000 8.519400 L 1747.343900 8.681700 L 1751.817900 9.094400 L 1756.266200 9.757400 L 1760.677000 10.670700 L 1765.038600 11.834000 L 1769.339000 13.247400 L 1773.566600 14.910600 L 1777.459100 16.708100 L 1781.822200 14.705800 L 1787.377100 12.623900 L 1793.066500 10.944100 L 1798.863200 9.675500 L 1804.740300 8.827200 L 1810.670400 8.408300 L 1816.626500 8.427800 L 1822.581400 8.894900 L 1828.508100 9.818600 L 1834.379200 11.207900 L 1840.167800 13.072100 L 1845.846600 15.420100 L 1851.388600 18.261000 L 1856.766500 21.604000 L 1861.953200 25.458100 L 1866.921700 29.832300 L 1871.644700 34.735800 L 1876.095100 40.177600 L 1900.599700 72.701800 L 1925.104200 40.177600 L 1929.554600 34.735800 L 1934.277600 29.832300 L 1939.246100 25.458100 L 1944.432900 21.604000 L 1949.810800 18.261000 L 1955.352700 15.420100 L 1961.031600 13.072100 L 1966.820100 11.207900 L 1972.691300 9.818600 L 1978.617900 8.894900 L 1984.572800 8.427800 L 1990.529000 8.408300 L 1996.459100 8.827200 L 2002.336100 9.675500 L 2008.132900 10.944100 L 2013.822300 12.623900 L 2019.377100 14.705800 L 2024.770300 17.180800 L 2029.974700 20.039800 L 2034.963100 23.273700 L 2039.708400 26.873400 L 2043.997200 30.665100 L 2047.301300 27.745000 L 2050.914500 24.906800 L 2054.676800 22.288000 L 2058.577500 19.893900 L 2062.606400 17.729600 L 2066.753000 15.800400 L 2071.006800 14.111600 L 2075.357600 12.668200 L 2079.794800 11.475500 L 2084.308000 10.538900 L 2088.886800 9.863300 L 2093.520900 9.454200 L 2098.199700 9.316700 L 2189.399700 9.316700 L 2193.490700 9.420100 L 2197.528100 9.727100 L 2201.506700 10.232700 L 2205.421700 10.931800 L 2209.268000 11.819500 L 2213.040500 12.890800 L 2216.734400 14.140700 L 2220.344700 15.564200 L 2223.866200 17.156200 L 2227.294100 18.911900 L 2230.623300 20.826100 L 2233.848900 22.894000 L 2236.965800 25.110500 L 2239.969100 27.470600 L 2242.853700 29.969300 L 2245.614700 32.601700 L 2248.247000 35.362700 L 2250.745700 38.247300 L 2253.105800 41.250500 L 2255.322300 44.367500 L 2257.390200 47.593000 L 2259.304500 50.922200 L 2261.060100 54.350100 L 2262.652200 57.871700 L 2264.075600 61.481900 L 2265.325500 65.175800 L 2266.396800 68.948400 L 2267.284500 72.794600 L 2267.983700 76.709600 L 2268.489200 80.688300 L 2268.796200 84.725600 L 2268.899700 88.816700 L 2268.899700 375.216700 L 2268.796200 379.307700 L 2268.489200 383.345100 L 2267.983700 387.323700 L 2267.284500 391.238700 L 2266.396800 395.085000 L 2265.325500 398.857500 L 2264.075600 402.551400 L 2262.652200 406.161700 L 2261.060100 409.683200 L 2259.304500 413.111100 L 2257.390200 416.440300 L 2255.322300 419.665900 L 2253.105800 422.782800 L 2250.745700 425.786000 L 2249.967600 426.684300 L 2252.940500 430.637900 L 2256.600200 435.939000 L 2259.804000 441.491100 L 2262.542000 447.264600 L 2264.804400 453.229800 L 2266.581300 459.357300 L 2267.862700 465.617300 L 2268.638800 471.980300 L 2268.899700 478.416700 L 2268.899700 536.816700 L 2268.640700 543.229600 L 2267.870200 549.569900 L 2266.597900 555.808400 L 2264.833700 561.915700 L 2262.587200 567.862500 L 2259.868200 573.619600 L 2256.686400 579.157700 L 2253.051600 584.447400 L 2165.051600 702.047400 L 2161.987500 705.896500 L 2158.748900 709.498000 L 2155.347200 712.852100 L 2151.794200 715.958600 L 2148.101300 718.817400 L 2144.280300 721.428700 L 2140.342600 723.792300 L 2136.300000 725.908200 L 2132.164000 727.776500 L 2127.946300 729.397000 L 2123.658400 730.769700 L 2119.311900 731.894700 L 2114.918500 732.771900 L 2110.489700 733.401300 L 2106.037100 733.782800 L 2101.572500 733.916500 L 2097.107200 733.802200 L 2092.653100 733.440100 L 2088.221600 732.829900 L 2083.824400 731.971900 L 2079.473100 730.865800 L 2075.179200 729.511600 L 2070.954500 727.909500 L 2066.810400 726.059200 L 2062.758600 723.960900 L 2058.810800 721.614400 L 2054.978400 719.019800 L 2051.273200 716.177000 L 2047.706600 713.086000 L 2044.290400 709.746800 L 2041.036100 706.159300 L 2037.955400 702.323600 L 2004.441000 657.939700 L 1964.251600 711.647400 L 1961.179100 715.506500 L 1957.931300 719.116700 L 1954.519800 722.477900 L 1950.956500 725.590200 L 1947.252900 728.453400 L 1943.420700 731.067700 L 1939.471700 733.433000 L 1935.417500 735.549300 L 1931.269800 737.416700 L 1927.040200 739.035000 L 1922.740600 740.404400 L 1918.382500 741.524800 L 1913.977700 742.396300 L 1909.537900 743.018700 L 1905.074600 743.392200 L 1900.599700 743.516700 L 1896.124700 743.392200 L 1891.661500 743.018700 L 1887.221600 742.396300 L 1882.816800 741.524800 L 1878.458700 740.404400 L 1874.159100 739.035000 L 1869.929600 737.416700 L 1865.781900 735.549300 L 1861.727700 733.433000 L 1857.778700 731.067700 L 1853.946500 728.453400 L 1850.242900 725.590200 L 1846.679500 722.477900 L 1843.268100 719.116700 L 1840.020300 715.506500 L 1836.947800 711.647400 L 1818.479200 686.966600 L 1806.670200 703.333400 L 1803.630200 707.288600 L 1800.407600 710.991700 L 1797.014300 714.442700 L 1793.462500 717.641400 L 1789.764100 720.587700 L 1785.931300 723.281600 L 1781.976000 725.723000 L 1777.910200 727.911700 L 1773.746100 729.847700 L 1769.495600 731.530800 L 1765.170800 732.960900 L 1760.783800 734.138000 L 1756.346500 735.062000 L 1751.871000 735.732700 L 1747.369300 736.150100 L 1742.853600 736.314000 L 1738.335700 736.224400 L 1733.827800 735.881100 L 1729.341900 735.284100 L 1724.890000 734.433300 L 1720.484100 733.328500 L 1716.136400 731.969600 L 1711.858800 730.356700 L 1707.663400 728.489500 L 1703.562200 726.368000 L 1699.567300 723.992000 L 1695.690600 721.361500 L 1691.944300 718.476400 L 1688.340400 715.336500 L 1684.890800 711.941800 L 1681.607700 708.292200 L 1678.503100 704.387600 L 1662.813700 683.379800 L 1645.851600 706.047400 L 1642.779100 709.906500 L 1639.531300 713.516700 L 1636.119800 716.877900 L 1632.556500 719.990200 L 1628.852900 722.853400 L 1625.020700 725.467700 L 1621.071700 727.833000 L 1617.017500 729.949300 L 1612.869800 731.816700 L 1608.640200 733.435000 L 1604.340600 734.804400 L 1599.982500 735.924800 L 1595.577700 736.796300 L 1591.137900 737.418700 L 1586.674600 737.792200 L 1582.199700 737.916700 L 1577.724700 737.792200 L 1573.261500 737.418700 L 1568.821600 736.796300 L 1564.416800 735.924800 L 1560.058700 734.804400 L 1555.759100 733.435000 L 1551.529600 731.816700 L 1547.381900 729.949300 L 1543.327700 727.833000 L 1539.378700 725.467700 L 1535.546500 722.853400 L 1531.842900 719.990200 L 1528.279500 716.877900 L 1524.868100 713.516700 L 1521.620300 709.906500 L 1518.547800 706.047400 L 1481.625000 656.705100 L 1444.895100 705.455700 L 1441.831300 709.279600 L 1438.594700 712.857600 L 1435.196800 716.189700 L 1431.649200 719.275800 L 1427.963200 722.116000 L 1424.150400 724.710100 L 1420.222300 727.058300 L 1416.190300 729.160400 L 1412.065900 731.016400 L 1407.860600 732.626300 L 1403.585900 733.990100 L 1399.253200 735.107800 L 1394.874100 735.979300 L 1390.460000 736.604600 L 1386.022400 736.983700 L 1381.572800 737.116500 L 1377.122600 737.003000 L 1372.683400 736.643300 L 1368.266600 736.037200 L 1363.883800 735.184800 L 1359.546300 734.086000 L 1355.265700 732.740900 L 1351.053400 731.149300 L 1346.921000 729.311200 L 1342.879800 727.226700 L 1338.941500 724.895700 L 1335.117500 722.318100 L 1331.419200 719.494100 L 1327.858100 716.423400 L 1324.445800 713.106200 L 1321.193600 709.542300 L 1318.113100 705.731800 L 1281.008200 656.927200 L 1244.251600 706.047400 L 1241.179100 709.906500 L 1237.931300 713.516700 L 1234.519800 716.877900 L 1230.956500 719.990200 L 1227.252900 722.853400 L 1223.420700 725.467700 L 1219.471700 727.833000 L 1215.417500 729.949300 L 1211.269800 731.816700 L 1207.040200 733.435000 L 1202.740600 734.804400 L 1198.382500 735.924800 L 1193.977700 736.796300 L 1189.537900 737.418700 L 1185.074600 737.792200 L 1180.599700 737.916700 L 1176.124700 737.792200 L 1171.661500 737.418700 L 1167.221600 736.796300 L 1162.816800 735.924800 L 1158.458700 734.804400 L 1154.159100 733.435000 L 1149.929600 731.816700 L 1145.781900 729.949300 L 1141.727700 727.833000 L 1137.778700 725.467700 L 1133.946500 722.853400 L 1130.242900 719.990200 L 1126.679500 716.877900 L 1123.268100 713.516700 L 1120.020300 709.906500 L 1116.947800 706.047400 L 1080.199700 656.938600 L 1043.451600 706.047400 L 1040.379100 709.906500 L 1037.131300 713.516700 L 1033.719800 716.877900 L 1030.156500 719.990200 L 1026.452900 722.853400 L 1022.620700 725.467700 L 1018.671700 727.833000 L 1014.617500 729.949300 L 1010.469800 731.816700 L 1006.240200 733.435000 L 1001.940600 734.804400 L 997.582500 735.924800 L 993.177700 736.796300 L 988.737900 737.418700 L 984.274600 737.792200 L 979.799700 737.916700 L 975.324700 737.792200 L 970.861500 737.418700 L 966.421600 736.796300 L 962.016800 735.924800 L 957.658700 734.804400 L 953.359100 733.435000 L 949.129600 731.816700 L 944.981900 729.949300 L 940.927700 727.833000 L 936.978700 725.467700 L 933.146500 722.853400 L 929.442900 719.990200 L 925.879500 716.877900 L 922.468100 713.516700 L 919.220300 709.906500 L 916.147800 706.047400 L 878.924700 656.303700 L 842.495100 704.655700 L 839.422800 708.489700 L 836.177000 712.076300 L 832.769400 715.415500 L 829.211400 718.507400 L 825.514600 721.351900 L 821.690700 723.949100 L 817.751100 726.298900 L 813.707500 728.401400 L 809.571400 730.256600 L 805.354300 731.864300 L 801.067900 733.224800 L 796.723600 734.337900 L 792.333100 735.203600 L 787.907900 735.822000 L 783.459600 736.193000 L 778.999700 736.316700 L 774.539800 736.193000 L 770.091500 735.822000 L 765.666300 735.203600 L 761.275700 734.337900 L 756.931500 733.224800 L 752.645000 731.864300 L 748.428000 730.256600 L 744.291800 728.401400 L 740.248200 726.298900 L 736.308700 723.949100 L 732.484700 721.351900 L 728.788000 718.507400 L 725.230000 715.415500 L 721.822300 712.076300 L 718.576500 708.489700 L 715.504200 704.655700 L 681.477400 659.492900 L 641.851600 712.447400 L 638.779100 716.306500 L 635.531300 719.916700 L 632.119800 723.277900 L 628.556500 726.390200 L 624.852900 729.253400 L 621.020700 731.867700 L 617.071700 734.233000 L 613.017500 736.349300 L 608.869800 738.216700 L 604.640200 739.835000 L 600.340600 741.204400 L 595.982500 742.324800 L 591.577700 743.196300 L 587.137900 743.818700 L 582.674600 744.192200 L 578.199700 744.316700 L 573.724700 744.192200 L 569.261500 743.818700 L 564.821600 743.196300 L 560.416800 742.324800 L 556.058700 741.204400 L 551.759100 739.835000 L 547.529600 738.216700 L 543.381900 736.349300 L 539.327700 734.233000 L 535.378700 731.867700 L 531.546500 729.253400 L 527.842900 726.390200 L 524.279500 723.277900 L 520.868100 719.916700 L 517.620300 716.306500 L 514.547800 712.447400 L 474.921900 659.492800 L 440.895100 704.655700 L 437.822800 708.489700 L 434.577000 712.076300 L 431.169400 715.415500 L 427.611400 718.507400 L 423.914600 721.351900 L 420.090700 723.949100 L 416.151100 726.298900 L 412.107500 728.401400 L 407.971400 730.256600 L 403.754300 731.864300 L 399.467900 733.224800 L 395.123600 734.337900 L 390.733100 735.203600 L 386.307900 735.822000 L 381.859600 736.193000 L 377.399700 736.316700 L 372.939800 736.193000 L 368.491500 735.822000 L 364.066300 735.203600 L 359.675700 734.337900 L 355.331500 733.224800 L 351.045000 731.864300 L 346.828000 730.256600 L 342.691800 728.401400 L 338.648200 726.298900 L 334.708700 723.949100 L 330.884700 721.351900 L 327.188000 718.507400 L 323.630000 715.415500 L 320.222300 712.076300 L 316.976500 708.489700 L 313.904200 704.655700 L 277.474700 656.303800 L 240.251600 706.047400 L 237.179100 709.906500 L 233.931300 713.516700 L 230.519800 716.877900 L 226.956500 719.990200 L 223.252900 722.853400 L 219.420700 725.467700 L 215.471700 727.833000 L 211.417500 729.949300 L 207.269800 731.816700 L 203.040200 733.435000 L 198.740600 734.804400 L 194.382500 735.924800 L 189.977700 736.796300 L 185.537900 737.418700 L 181.074600 737.792200 L 176.599700 737.916700 L 172.124700 737.792200 L 167.661500 737.418700 L 163.221600 736.796300 L 158.816800 735.924800 L 154.458700 734.804400 L 150.159100 733.435000 L 145.929600 731.816700 L 141.781900 729.949300 L 137.727700 727.833000 L 133.778700 725.467700 L 129.946500 722.853400 L 126.242900 719.990200 L 122.679500 716.877900 L 119.268100 713.516700 L 116.020300 709.906500 L 112.947800 706.047400 L 24.947800 588.447400 L 21.313000 583.157700 L 18.131200 577.619600 L 15.412200 571.862500 L 13.165700 565.915700 L 11.401400 559.808400 L 10.129200 553.569900 L 9.358700 547.229600 L 9.099700 540.816700 L 9.099700 426.416700 L 9.357600 420.016900 L 10.125000 413.689200 L 11.392100 407.462800 L 13.149300 401.366800 L 15.387000 395.430300 L 18.095400 389.682400 L 21.264900 384.152200 L 24.885700 378.869000 L 29.134200 373.175900 L 25.230800 368.023400 L 21.532700 362.704800 L 18.294800 357.131200 L 15.527300 351.332500 L 13.240300 345.338900 L 11.443900 339.180400 L 10.148300 332.887100 L 9.363500 326.489200 L 9.099700 320.016700 L 9.099700 205.616700 L 9.358700 199.203800 L 10.129200 192.863400 L 11.401400 186.625000 L 13.165700 180.517600 L 15.412200 174.570800 L 18.131200 168.813700 L 21.313000 163.275700 L 24.947800 157.986000 L 112.947800 40.386000 L 116.020300 36.526800 L 119.268100 32.916600 L 122.679500 29.555400 L 126.242900 26.443200 L 129.946500 23.579900 L 133.778700 20.965600 L 137.727700 18.600300 L 141.781900 16.484000 L 145.929600 14.616700 L 150.159100 12.998300 L 154.458700 11.628900 L 158.816800 10.508500 L 163.221600 9.637100 L 167.661500 9.014600 L 172.124700 8.641200 L 176.599700 8.516700 L 181.074600 8.641200 L 185.537900 9.014600 L 189.977700 9.637100 L 194.382500 10.508500 L 198.740600 11.628900 L 203.040200 12.998300 L 207.269800 14.616700 L 211.417500 16.484000 L 215.471700 18.600300 L 219.420700 20.965600 L 223.252900 23.579900 L 226.956500 26.443200 L 230.519800 29.555400 L 233.931300 32.916600 L 237.179100 36.526800 L 240.251600 40.386000 L 276.999700 89.494800 L 313.747800 40.386000 L 316.820300 36.526800 L 320.068100 32.916600 L 323.479500 29.555400 L 327.042900 26.443200 L 330.746500 23.579900 L 334.578700 20.965600 L 338.527700 18.600300 L 342.581900 16.484000 L 346.729600 14.616700 L 350.959100 12.998300 L 355.258700 11.628900 L 359.616800 10.508500 L 364.021600 9.637100 L 368.461500 9.014600 L 372.924700 8.641200 L 377.399700 8.516700 L 381.874600 8.641200 L 386.337900 9.014600 L 390.777700 9.637100 L 395.182500 10.508500 L 399.540600 11.628900 L 403.840200 12.998300 L 408.069800 14.616700 L 412.217500 16.484000 L 416.271700 18.600300 L 420.220700 20.965600 L 424.052900 23.579900 L 427.756500 26.443200 L 431.319800 29.555400 L 433.639300 31.840700 L 434.366400 31.084700 L 438.799300 27.126500 L 443.501300 23.520100 L 448.445900 20.274800 L 453.606300 17.399700 L 458.955900 14.903700 L 464.468100 12.796100 L 470.116300 11.085900 L 475.873800 9.782300 L 481.714000 8.894400 L 487.610200 8.431300 L 493.535900 8.402100 Z M 490.199700 547.216700 L 578.199700 664.816700 L 666.199700 547.216700 L 666.199700 432.816700 L 583.799700 322.416700 L 583.799700 208.816700 L 490.199700 88.016700 Z M 1900.599700 204.816700 L 1812.599700 88.016700 L 1812.599700 546.416700 L 1900.599700 664.016700 L 1988.599700 546.416700 L 1988.599700 88.016700 Z M 1494.199700 205.616700 L 1494.199700 540.816700 L 1582.199700 658.416700 L 1670.199700 540.816700 L 1670.199700 426.416700 L 1630.199700 372.816700 L 1670.199700 319.216700 L 1670.199700 205.616700 L 1582.199700 88.016700 Z M 1092.599700 205.616700 L 1092.599700 320.016700 L 1132.599700 372.816700 L 1092.599700 426.416700 L 1092.599700 540.816700 L 1180.599700 658.416700 L 1268.599700 540.816700 L 1268.599700 426.416700 L 1228.599700 373.616700 L 1268.599700 320.016700 L 1268.599700 205.616700 L 1180.599700 88.016700 Z M 891.799700 205.616700 L 891.799700 540.816700 L 979.799700 658.416700 L 1067.799700 540.816700 L 1067.799700 426.416700 L 1027.799700 372.816700 L 1067.799700 319.216700 L 1067.799700 205.616700 L 979.799700 88.016700 Z M 88.599700 205.616700 L 88.599700 320.016700 L 128.599700 372.816700 L 88.599700 426.416700 L 88.599700 540.816700 L 176.599700 658.416700 L 264.599700 540.816700 L 264.599700 426.416700 L 224.599700 373.616700 L 264.599700 320.016700 L 264.599700 205.616700 L 176.599700 88.016700 Z M 1334.199700 151.216700 L 1334.199700 423.216700 L 1292.599700 423.216700 L 1292.599700 540.816700 L 1381.399700 657.616700 L 1469.399700 540.816700 L 1469.399700 423.216700 L 1427.799700 423.216700 L 1427.799700 151.216700 L 1381.399700 88.816700 Z M 1694.999700 150.416700 L 1694.999700 593.616700 L 1742.199700 656.816700 L 1787.799700 593.616700 L 1787.799700 150.416700 L 1742.199700 88.016700 Z M 690.999700 205.616700 L 690.999700 319.216700 L 730.999700 372.816700 L 690.999700 425.616700 L 690.999700 540.016700 L 778.999700 656.816700 L 866.999700 540.016700 L 866.999700 425.616700 L 826.999700 372.816700 L 866.999700 319.216700 L 866.999700 205.616700 L 778.999700 88.016700 Z M 289.399700 205.616700 L 289.399700 540.016700 L 377.399700 656.816700 L 465.399700 540.016700 L 465.399700 205.616700 L 377.399700 88.016700 Z M 2098.199700 88.816700 L 2012.599700 203.216700 L 2012.599700 536.816700 L 2101.399700 654.416700 L 2189.399700 536.816700 L 2189.399700 478.416700 L 2111.799700 375.216700 L 2189.399700 375.216700 L 2189.399700 88.816700 Z M 572.599700 212.816700 L 572.599700 326.416700 L 655.799700 436.816700 L 655.799700 543.216700 L 578.199700 646.416700 L 500.599700 543.216700 L 500.599700 119.216700 Z M 1977.399700 543.216700 L 1900.599700 645.616700 L 1822.999700 543.216700 L 1822.999700 120.016700 L 1894.999700 216.016700 L 1894.999700 544.816700 L 1905.399700 544.816700 L 1905.399700 216.816700 L 1977.399700 120.016700 Z M 1258.199700 208.816700 L 1258.199700 316.016700 L 1174.999700 426.416700 L 1174.999700 539.216700 L 1186.199700 539.216700 L 1186.199700 430.416700 L 1222.199700 381.616700 L 1258.199700 430.416700 L 1258.199700 536.816700 L 1180.599700 640.816700 L 1102.999700 536.816700 L 1102.999700 430.416700 L 1186.199700 320.016700 L 1186.199700 207.216700 L 1174.999700 207.216700 L 1174.999700 316.016700 L 1138.999700 364.016700 L 1102.999700 316.016700 L 1102.999700 208.816700 L 1180.599700 105.616700 Z M 254.199700 208.816700 L 254.199700 316.016700 L 170.999700 426.416700 L 170.999700 539.216700 L 182.199700 539.216700 L 182.199700 430.416700 L 218.199700 381.616700 L 254.199700 430.416700 L 254.199700 536.816700 L 176.599700 640.816700 L 98.999700 536.816700 L 98.999700 430.416700 L 182.199700 320.016700 L 182.199700 207.216700 L 170.999700 207.216700 L 170.999700 316.016700 L 134.999700 364.016700 L 98.999700 316.016700 L 98.999700 208.816700 L 176.599700 105.616700 Z M 1659.799700 208.816700 L 1659.799700 316.016700 L 1616.599700 372.816700 L 1659.799700 430.416700 L 1659.799700 536.816700 L 1582.199700 640.016700 L 1504.599700 536.816700 L 1504.599700 208.816700 L 1576.599700 112.816700 L 1576.599700 317.616700 L 1587.799700 317.616700 L 1587.799700 112.816700 Z M 1416.599700 155.216700 L 1416.599700 433.616700 L 1458.199700 433.616700 L 1458.199700 536.816700 L 1381.399700 640.016700 L 1303.799700 536.816700 L 1303.799700 433.616700 L 1345.399700 433.616700 L 1345.399700 155.216700 L 1381.399700 107.216700 Z M 1057.399700 208.816700 L 1057.399700 316.016700 L 1014.199700 372.816700 L 1057.399700 430.416700 L 1057.399700 536.816700 L 979.799700 640.016700 L 902.199700 536.816700 L 902.199700 208.816700 L 974.199700 112.816700 L 974.199700 317.616700 L 985.399700 317.616700 L 985.399700 112.816700 Z M 856.599700 208.816700 L 856.599700 315.216700 L 820.599700 363.216700 L 784.599700 315.216700 L 784.599700 207.216700 L 773.399700 207.216700 L 773.399700 319.216700 L 813.399700 372.816700 L 773.399700 425.616700 L 773.399700 537.616700 L 784.599700 537.616700 L 784.599700 429.616700 L 820.599700 381.616700 L 856.599700 429.616700 L 856.599700 536.016700 L 778.999700 639.216700 L 701.399700 536.016700 L 701.399700 429.616700 L 744.599700 372.816700 L 701.399700 315.216700 L 701.399700 208.816700 L 778.999700 105.616700 Z M 1777.399700 153.616700 L 1777.399700 590.416700 L 1742.199700 638.416700 L 1705.399700 590.416700 L 1705.399700 153.616700 L 1742.199700 106.416700 Z M 2178.199700 364.816700 L 2106.199700 364.816700 L 2106.199700 205.616700 L 2095.799700 205.616700 L 2095.799700 536.016700 L 2106.199700 536.016700 L 2106.199700 385.616700 L 2178.199700 481.616700 L 2178.199700 533.616700 L 2101.399700 636.816700 L 2023.799700 533.616700 L 2023.799700 206.416700 L 2103.799700 100.016700 L 2178.199700 100.016700 Z M 454.999700 208.816700 L 454.999700 536.016700 L 382.999700 632.016700 L 382.999700 207.216700 L 371.799700 207.216700 L 371.799700 632.016700 L 299.799700 536.016700 L 299.799700 208.816700 L 377.399700 105.616700 Z M 572.599700 435.216700 L 572.599700 545.616700 L 583.799700 545.616700 L 583.799700 435.216700 Z M 1576.599700 428.016700 L 1576.599700 538.416700 L 1587.799700 538.416700 L 1587.799700 428.016700 Z M 974.199700 428.016700 L 974.199700 538.416700 L 985.399700 538.416700 L 985.399700 428.016700 Z" transform="scale(0.125000,0.125000) translate(212.000000,745.000000)" fill="#df5c43" opacity="1.000000"></path>
    </g>
</svg>