<?xml version="1.0" encoding="UTF-8" standalone="yes"?>
<!DOCTYPE svg PUBLIC "-//W3C//DTD SVG 1.1//EN" "http://www.w3.org/Graphics/SVG/1.1/DTD/svg11.dtd">

<svg width="367" height="271" viewBox="0 0 367 271" xmlns="http://www.w3.org/2000/svg" xmlns:xlink="http://www.w3.org/1999/xlink" version="1.1" baseProfile="full">
    <g transform="scale(1,-1) translate(0,-271)">
        <path d="M 235.599999 1266.333306 L 162.266663 1364.333309 L 88.933328 1266.333306 L 88.933328 1170.999970 L 122.266662 1126.333302 L 88.933328 1082.333301 L 88.933328 986.999964 L 162.266663 888.999961 L 235.599999 986.999964 L 235.599999 1082.333301 L 202.266665 1126.999969 L 235.599999 1170.999970 Z M 226.933332 1174.333304 L 196.933331 1133.666636 L 166.933330 1174.333304 L 166.933330 1264.999973 L 157.599997 1264.999973 L 157.599997 1170.999970 L 226.933332 1078.999967 L 226.933332 989.666631 L 162.266663 903.666629 L 97.599995 989.666631 L 97.599995 1078.999967 L 127.599996 1118.999968 L 157.599997 1078.999967 L 157.599997 988.333298 L 166.933330 988.333298 L 166.933330 1082.333301 L 97.599995 1174.333304 L 97.599995 1262.999973 L 162.266663 1349.666642 L 226.933332 1262.999973 Z M 329.600002 1362.999976 L 256.266666 1265.666640 L 256.266666 986.999964 L 329.600002 888.999961 L 402.933338 986.999964 L 402.933338 1265.666640 Z M 394.266671 989.666631 L 329.600002 903.666629 L 264.933333 989.666631 L 264.933333 1262.333306 L 324.933335 1342.333309 L 324.933335 988.333298 L 334.266669 988.333298 L 334.266669 1342.333309 L 394.266671 1262.333306 Z M 423.600005 1271.666640 L 496.933340 1369.666643 L 570.266676 1271.666640 L 570.266676 1176.333304 L 501.600007 1084.333301 L 501.600007 989.666631 L 423.600005 888.999961 Z M 432.266672 914.999962 L 492.266674 992.999965 L 492.266674 1087.666634 L 561.600009 1179.666637 L 561.600009 1268.333306 L 496.933340 1354.333309 L 432.266672 1268.333306 Z M 492.266674 1178.333304 L 492.266674 1270.333306 L 501.600007 1270.333306 L 501.600007 1178.333304 Z M 590.933343 986.999964 L 590.933343 1081.666634 L 624.266678 1126.333302 L 590.933343 1170.333303 L 590.933343 1265.666640 L 664.266679 1362.999976 L 737.600014 1265.666640 L 737.600014 1170.333303 L 704.266680 1126.333302 L 737.600014 1081.666634 L 737.600014 986.999964 L 664.266679 888.999961 Z M 664.266679 903.666629 L 728.933347 989.666631 L 728.933347 1078.333301 L 698.933347 1118.333302 L 668.933346 1078.333301 L 668.933346 988.333298 L 659.600012 988.333298 L 659.600012 1081.666634 L 692.933346 1126.333302 L 659.600012 1170.333303 L 659.600012 1263.666640 L 668.933346 1263.666640 L 668.933346 1173.666637 L 698.933347 1133.666636 L 728.933347 1173.666637 L 728.933347 1262.333306 L 664.266679 1348.333309 L 599.600010 1262.333306 L 599.600010 1173.666637 L 635.600011 1126.333302 L 599.600010 1078.333301 L 599.600010 989.666631 Z M 904.933353 1266.333306 L 831.600017 1364.333309 L 758.266682 1266.333306 L 758.266682 986.999964 L 831.600017 888.999961 L 904.933353 986.999964 L 904.933353 1081.666634 L 871.600018 1126.333302 L 904.933353 1170.999970 Z M 896.266686 1174.333304 L 860.266685 1126.333302 L 896.266686 1078.999967 L 896.266686 989.666631 L 836.266684 909.666629 L 836.266684 1080.333301 L 826.933350 1080.333301 L 826.933350 909.666629 L 766.933349 989.666631 L 766.933349 1262.999973 L 831.600017 1348.999976 L 896.266686 1262.999973 Z M 826.933350 1172.333303 L 836.266684 1172.333303 L 836.266684 1264.333306 L 826.933350 1264.333306 Z M 1072.266691 1266.333306 L 998.933356 1364.333309 L 925.600020 1266.333306 L 925.600020 1170.999970 L 958.933354 1126.333302 L 925.600020 1082.333301 L 925.600020 986.999964 L 998.933356 888.999961 L 1072.266691 986.999964 L 1072.266691 1082.333301 L 1038.933357 1126.999969 L 1072.266691 1170.999970 Z M 1063.600024 1174.333304 L 1033.600023 1133.666636 L 1003.600023 1174.333304 L 1003.600023 1264.999973 L 994.266689 1264.999973 L 994.266689 1170.999970 L 1063.600024 1078.999967 L 1063.600024 989.666631 L 998.933356 903.666629 L 934.266687 989.666631 L 934.266687 1078.999967 L 964.266688 1118.999968 L 994.266689 1078.999967 L 994.266689 988.333298 L 1003.600023 988.333298 L 1003.600023 1082.333301 L 934.266687 1174.333304 L 934.266687 1262.999973 L 998.933356 1349.666642 L 1063.600024 1262.999973 Z M 1126.933360 941.666630 L 1126.933360 1168.333303 L 1092.266692 1168.333303 L 1092.266692 1266.333306 L 1166.266694 1363.666643 L 1239.600030 1266.333306 L 1239.600030 1168.333303 L 1204.933362 1168.333303 L 1204.933362 941.666630 L 1166.266694 889.666628 Z M 1166.266694 904.999962 L 1195.600028 944.999963 L 1195.600028 1176.999970 L 1230.266696 1176.999970 L 1230.266696 1262.999973 L 1166.266694 1348.999976 L 1101.600025 1262.999973 L 1101.600025 1176.999970 L 1136.266693 1176.999970 L 1136.266693 944.999963 Z M 1406.933368 1266.333306 L 1333.600033 1364.333309 L 1260.266697 1266.333306 L 1260.266697 986.999964 L 1333.600033 888.999961 L 1406.933368 986.999964 L 1406.933368 1081.666634 L 1373.600034 1126.333302 L 1406.933368 1170.999970 Z M 1398.266701 1174.333304 L 1362.266700 1126.333302 L 1398.266701 1078.999967 L 1398.266701 989.666631 L 1338.266699 909.666629 L 1338.266699 1080.333301 L 1328.933366 1080.333301 L 1328.933366 909.666629 L 1268.933364 989.666631 L 1268.933364 1262.999973 L 1333.600033 1348.999976 L 1398.266701 1262.999973 Z M 1328.933366 1172.333303 L 1338.266699 1172.333303 L 1338.266699 1264.333306 L 1328.933366 1264.333306 Z M 1427.600035 940.999963 L 1427.600035 1310.333308 L 1466.933370 1362.999976 L 1504.933371 1310.333308 L 1504.933371 940.999963 L 1466.933370 888.999961 Z M 1466.933370 904.333295 L 1496.266704 943.666630 L 1496.266704 1307.666641 L 1466.933370 1347.666642 L 1436.266702 1307.666641 L 1436.266702 943.666630 Z M 1598.933374 1368.999976 L 1525.600038 1270.999973 L 1525.600038 888.999961 L 1598.933374 986.333298 L 1672.266710 888.999961 L 1672.266710 1270.999973 Z M 1662.933376 915.666629 L 1602.933374 996.333298 L 1602.933374 1269.666640 L 1594.266707 1269.666640 L 1594.266707 995.666631 L 1534.266705 915.666629 L 1534.266705 1268.333306 L 1598.933374 1353.666642 L 1662.933376 1268.333306 Z M 1839.600048 1262.999973 L 1766.266712 1360.999976 L 1692.266710 1262.999973 L 1692.266710 984.999964 L 1763.600046 889.666628 L 1839.600048 889.666628 L 1839.600048 1128.333302 L 1774.933379 1128.333302 L 1839.600048 1214.333305 Z M 1830.266714 1216.999971 L 1770.266713 1136.999969 L 1770.266713 1262.333306 L 1761.600046 1262.333306 L 1761.600046 986.999964 L 1770.266713 986.999964 L 1770.266713 1119.666635 L 1830.266714 1119.666635 L 1830.266714 898.999962 L 1768.266713 898.999962 L 1701.600044 987.666631 L 1701.600044 1260.333306 L 1766.266712 1346.333309 L 1830.266714 1260.333306 Z M 262.266667 470.999973 L 336.266669 568.333309 L 406.266671 470.999973 L 406.266671 372.999970 L 339.600002 283.666634 L 339.600002 192.333298 L 262.266667 88.999961 Z M 270.933333 115.666629 L 330.933335 195.666631 L 330.933335 287.666634 L 396.266671 372.999970 L 330.933335 372.999970 L 330.933335 469.666640 L 339.600002 469.666640 L 339.600002 382.333304 L 396.933337 382.333304 L 396.933337 467.666640 L 336.266669 554.333309 L 270.933333 467.666640 Z M 426.933338 186.999964 L 426.933338 466.333306 L 500.266674 564.333309 L 573.600009 466.333306 L 573.600009 186.999964 L 500.266674 88.999961 Z M 500.266674 103.666629 L 564.933342 189.666631 L 564.933342 462.999973 L 500.266674 548.999976 L 435.600005 462.999973 L 435.600005 189.666631 Z M 495.600007 188.333298 L 495.600007 464.333306 L 504.933341 464.333306 L 504.933341 188.333298 Z M 740.933348 466.333306 L 667.600012 564.333309 L 594.266677 466.333306 L 594.266677 186.999964 L 667.600012 88.999961 L 740.933348 186.999964 L 740.933348 281.666634 L 707.600013 326.333302 L 740.933348 370.999970 Z M 732.266681 374.333304 L 696.266680 326.333302 L 732.266681 278.999967 L 732.266681 189.666631 L 672.266679 109.666629 L 672.266679 280.333301 L 662.933345 280.333301 L 662.933345 109.666629 L 602.933344 189.666631 L 602.933344 462.999973 L 667.600012 548.999976 L 732.266681 462.999973 Z M 662.933345 372.333303 L 672.266679 372.333303 L 672.266679 464.333306 L 662.933345 464.333306 Z M 1068.266691 466.333306 L 994.933356 564.333309 L 921.600020 466.333306 L 921.600020 370.999970 L 954.933354 326.333302 L 921.600020 282.333301 L 921.600020 186.999964 L 994.933356 88.999961 L 1068.266691 186.999964 L 1068.266691 282.333301 L 1034.933357 326.999969 L 1068.266691 370.999970 Z M 1059.600024 374.333304 L 1029.600023 333.666636 L 999.600022 374.333304 L 999.600022 464.999973 L 990.266689 464.999973 L 990.266689 370.999970 L 1059.600024 278.999967 L 1059.600024 189.666631 L 994.933356 103.666629 L 930.266687 189.666631 L 930.266687 278.999967 L 960.266688 318.999968 L 990.266689 278.999967 L 990.266689 188.333298 L 999.600022 188.333298 L 999.600022 282.333301 L 930.266687 374.333304 L 930.266687 462.999973 L 994.933356 549.666642 L 1059.600024 462.999973 Z M 1161.600027 568.333309 L 1088.933358 470.333306 L 1088.933358 88.333295 L 1161.600027 186.333298 L 1235.600030 88.333295 L 1235.600030 470.333306 Z M 1226.933363 114.999962 L 1161.600027 200.999965 L 1097.600025 114.999962 L 1097.600025 467.666640 L 1157.600027 548.333309 L 1157.600027 280.333301 L 1166.933361 280.333301 L 1166.933361 546.333309 L 1226.933363 467.666640 Z M 1256.266697 140.999963 L 1256.266697 510.333308 L 1295.600031 562.999976 L 1333.600033 510.333308 L 1333.600033 140.999963 L 1295.600031 88.999961 Z M 1295.600031 104.333295 L 1324.933366 143.666630 L 1324.933366 507.666641 L 1295.600031 547.666642 L 1264.933364 507.666641 L 1264.933364 143.666630 Z M 1353.600033 470.999973 L 1427.600035 568.333309 L 1497.600038 470.999973 L 1497.600038 372.999970 L 1430.933369 283.666634 L 1430.933369 192.333298 L 1353.600033 88.999961 Z M 1362.266700 115.666629 L 1422.266702 195.666631 L 1422.266702 287.666634 L 1487.600037 372.999970 L 1422.266702 372.999970 L 1422.266702 469.666640 L 1430.933369 469.666640 L 1430.933369 382.333304 L 1488.266704 382.333304 L 1488.266704 467.666640 L 1427.600035 554.333309 L 1362.266700 467.666640 Z M 1552.266706 141.666630 L 1552.266706 368.333303 L 1517.600038 368.333303 L 1517.600038 466.333306 L 1591.600040 563.666643 L 1664.933376 466.333306 L 1664.933376 368.333303 L 1630.266708 368.333303 L 1630.266708 141.666630 L 1591.600040 89.666628 Z M 1591.600040 104.999962 L 1620.933375 144.999963 L 1620.933375 376.999970 L 1655.600042 376.999970 L 1655.600042 462.999973 L 1591.600040 548.999976 L 1526.933372 462.999973 L 1526.933372 376.999970 L 1561.600040 376.999970 L 1561.600040 144.999963 Z" transform="scale(0.125000,0.125000) translate(501.000000,355.000000)" opacity="1.000000"></path>
        <path d="M 432.864600 809.799100 L 438.769300 810.665000 L 444.623400 811.992100 L 450.400400 813.789600 L 456.073700 816.066600 L 461.616600 818.832100 L 467.002400 822.095200 L 472.204600 825.865200 L 477.196600 830.151100 L 481.951600 834.962000 L 486.443000 840.307000 L 544.927700 915.787300 L 600.614700 841.369200 L 603.687200 837.510000 L 606.935000 833.899900 L 610.346500 830.538600 L 613.909800 827.426400 L 617.613500 824.563100 L 621.445600 821.948900 L 625.394600 819.583600 L 629.448900 817.467200 L 633.596600 815.599900 L 637.826100 813.981500 L 642.125700 812.612100 L 646.483800 811.491700 L 650.888600 810.620300 L 655.328400 809.997900 L 659.791700 809.624400 L 664.266600 809.499900 L 668.741600 809.624400 L 673.204800 809.997900 L 677.644700 810.620300 L 682.049500 811.491700 L 686.407600 812.612100 L 690.707200 813.981500 L 694.936700 815.599900 L 699.084400 817.467200 L 703.138600 819.583600 L 707.087600 821.948900 L 710.919800 824.563100 L 714.623400 827.426400 L 718.186800 830.538600 L 721.598200 833.899900 L 724.846000 837.510000 L 727.918600 841.369200 L 747.933300 868.116100 L 767.948000 841.369200 L 771.020600 837.510000 L 774.268400 833.899900 L 777.679800 830.538600 L 781.243200 827.426400 L 784.946800 824.563100 L 788.779000 821.948900 L 792.728000 819.583600 L 796.782200 817.467200 L 800.929900 815.599900 L 805.159400 813.981500 L 809.459000 812.612100 L 813.817100 811.491700 L 818.221900 810.620300 L 822.661800 809.997900 L 827.125000 809.624400 L 831.600000 809.499900 L 836.074900 809.624400 L 840.538100 809.997900 L 844.978000 810.620300 L 849.382800 811.491700 L 853.740900 812.612100 L 858.040500 813.981500 L 862.270000 815.599900 L 866.417700 817.467200 L 870.472000 819.583600 L 874.421000 821.948900 L 878.253100 824.563100 L 881.956700 827.426400 L 885.520100 830.538600 L 888.931500 833.899900 L 892.179400 837.510000 L 895.251900 841.369200 L 915.266600 868.116200 L 935.281400 841.369200 L 938.353900 837.510000 L 941.601700 833.899900 L 945.013200 830.538600 L 948.576500 827.426400 L 952.280100 824.563100 L 956.112300 821.948900 L 960.061300 819.583600 L 964.115500 817.467200 L 968.263200 815.599900 L 972.492700 813.981500 L 976.792400 812.612100 L 981.150400 811.491700 L 985.555300 810.620300 L 989.995100 809.997900 L 994.458400 809.624400 L 998.933300 809.499900 L 1003.408200 809.624400 L 1007.871500 809.997900 L 1012.311400 810.620300 L 1016.716200 811.491700 L 1021.074200 812.612100 L 1025.373900 813.981500 L 1029.603400 815.599900 L 1033.751100 817.467200 L 1037.805300 819.583600 L 1041.754300 821.948900 L 1045.586500 824.563100 L 1049.290100 827.426400 L 1052.853500 830.538600 L 1056.264900 833.899900 L 1059.512700 837.510000 L 1062.585200 841.369200 L 1082.742200 868.306300 L 1102.862300 841.706900 L 1105.950500 837.868600 L 1109.212400 834.279500 L 1112.636400 830.939600 L 1116.210700 827.848700 L 1119.923700 825.006800 L 1123.763900 822.413800 L 1127.719400 820.069800 L 1131.778800 817.974700 L 1135.930300 816.128400 L 1140.162300 814.530800 L 1144.463200 813.182000 L 1148.821300 812.081900 L 1153.224900 811.230400 L 1157.662500 810.627500 L 1162.122300 810.273100 L 1166.592800 810.167200 L 1171.062200 810.309800 L 1175.519000 810.700800 L 1179.951500 811.340100 L 1184.348000 812.227700 L 1188.696900 813.363500 L 1192.986600 814.747600 L 1197.205300 816.379800 L 1201.341600 818.260100 L 1205.383600 820.388400 L 1209.319800 822.764800 L 1213.138500 825.389200 L 1216.828100 828.261400 L 1220.377000 831.381600 L 1223.773400 834.749500 L 1227.005800 838.365300 L 1230.062400 842.228700 L 1249.621700 868.532600 L 1269.948100 841.369200 L 1273.020600 837.510000 L 1276.268400 833.899900 L 1279.679800 830.538600 L 1283.243200 827.426400 L 1286.946800 824.563100 L 1290.779000 821.948900 L 1294.728000 819.583600 L 1298.782200 817.467200 L 1302.929900 815.599900 L 1307.159400 813.981500 L 1311.459100 812.612100 L 1315.817100 811.491700 L 1320.221900 810.620300 L 1324.661800 809.997900 L 1329.125000 809.624400 L 1333.600000 809.499900 L 1338.074900 809.624400 L 1342.538200 809.997900 L 1346.978000 810.620300 L 1351.382800 811.491700 L 1355.740900 812.612100 L 1360.040500 813.981500 L 1364.270100 815.599900 L 1368.417800 817.467200 L 1372.472000 819.583600 L 1376.421000 821.948900 L 1380.253200 824.563100 L 1383.956800 827.426400 L 1387.520100 830.538600 L 1390.931600 833.899900 L 1394.179400 837.510000 L 1397.251900 841.369200 L 1400.249700 845.375400 L 1403.528900 841.040200 L 1406.633500 837.182800 L 1409.913000 833.577300 L 1413.355700 830.223700 L 1416.949800 827.121900 L 1420.683400 824.271800 L 1424.544800 821.673200 L 1428.522200 819.326100 L 1432.603800 817.230400 L 1436.777700 815.386000 L 1441.032200 813.792700 L 1445.355400 812.450500 L 1449.735600 811.359400 L 1454.160900 810.519100 L 1458.619500 809.929600 L 1463.099700 809.590800 L 1467.589700 809.502600 L 1472.077500 809.664900 L 1476.551500 810.077600 L 1480.999800 810.740700 L 1485.410700 811.653900 L 1489.772200 812.817300 L 1494.072700 814.230600 L 1496.337000 815.121500 L 1500.377400 813.607100 L 1506.066800 811.927300 L 1511.863500 810.658700 L 1517.740600 809.810400 L 1523.670700 809.391500 L 1529.626800 809.411000 L 1535.581700 809.878100 L 1541.508400 810.801800 L 1547.379500 812.191200 L 1553.168100 814.055300 L 1558.846900 816.403300 L 1564.388900 819.244300 L 1569.766800 822.587200 L 1574.953600 826.441300 L 1579.922000 830.815500 L 1584.645000 835.719000 L 1589.095500 841.160900 L 1598.933400 854.218400 L 1608.771200 841.160900 L 1613.221600 835.719000 L 1617.944600 830.815500 L 1622.913100 826.441300 L 1628.099900 822.587200 L 1633.477800 819.244300 L 1639.019700 816.403300 L 1644.698600 814.055300 L 1650.487100 812.191200 L 1656.358300 810.801800 L 1662.284900 809.878100 L 1668.239800 809.411000 L 1674.195900 809.391500 L 1680.126100 809.810400 L 1686.003100 810.658700 L 1691.799900 811.927300 L 1697.489300 813.607100 L 1703.044100 815.689100 L 1708.437300 818.164100 L 1713.641700 821.023100 L 1718.547000 824.203000 L 1720.077100 823.137900 L 1723.977800 820.743800 L 1728.006700 818.579500 L 1732.153300 816.650300 L 1736.407200 814.961500 L 1740.757900 813.518100 L 1745.195100 812.325500 L 1749.708300 811.388800 L 1754.287200 810.713300 L 1758.921200 810.304100 L 1763.600000 810.166600 L 1839.600000 810.166600 L 1843.691100 810.270000 L 1847.728400 810.577000 L 1851.707100 811.082600 L 1855.622000 811.781700 L 1859.468300 812.669400 L 1863.240900 813.740700 L 1866.934800 814.990600 L 1870.545000 816.414100 L 1874.066500 818.006100 L 1877.494400 819.761800 L 1880.823600 821.676100 L 1884.049200 823.743900 L 1887.166100 825.960400 L 1890.169400 828.320500 L 1893.054000 830.819200 L 1895.815000 833.451600 L 1898.447300 836.212600 L 1900.946100 839.097200 L 1903.306200 842.100500 L 1905.522600 845.217400 L 1907.590500 848.442900 L 1909.504800 851.772200 L 1911.260400 855.200000 L 1912.852500 858.721600 L 1914.276000 862.331800 L 1915.525800 866.025700 L 1916.597100 869.798300 L 1917.484800 873.644600 L 1918.184000 877.559500 L 1918.689500 881.538200 L 1918.996600 885.575500 L 1919.100000 889.666600 L 1919.100000 1128.333300 L 1918.996600 1132.424300 L 1918.689500 1136.461700 L 1918.184000 1140.440300 L 1917.484800 1144.355300 L 1916.597100 1148.201500 L 1915.525800 1151.974100 L 1914.276000 1155.668000 L 1912.852500 1159.278200 L 1911.260400 1162.799800 L 1909.504800 1166.227700 L 1907.590500 1169.556900 L 1906.446000 1171.342100 L 1906.800500 1171.855600 L 1910.004300 1177.407700 L 1912.742300 1183.181200 L 1915.004700 1189.146400 L 1916.781600 1195.273900 L 1918.063000 1201.533900 L 1918.839100 1207.896900 L 1919.100000 1214.333300 L 1919.100000 1262.999900 L 1918.841000 1269.412800 L 1918.070500 1275.753200 L 1916.798300 1281.991600 L 1915.034000 1288.098900 L 1912.787500 1294.045800 L 1910.068500 1299.802900 L 1906.886700 1305.340900 L 1903.251900 1310.630600 L 1829.918600 1408.630600 L 1826.854500 1412.479700 L 1823.615900 1416.081300 L 1820.214200 1419.435300 L 1816.661100 1422.541800 L 1812.968300 1425.400700 L 1809.147200 1428.011900 L 1805.209600 1430.375500 L 1801.167000 1432.491500 L 1797.031000 1434.359700 L 1792.813300 1435.980200 L 1788.525400 1437.353000 L 1784.178900 1438.478000 L 1779.785400 1439.355200 L 1775.356700 1439.984600 L 1770.904100 1440.366100 L 1766.439400 1440.499700 L 1761.974200 1440.385500 L 1757.520100 1440.023300 L 1753.088600 1439.413200 L 1748.691400 1438.555100 L 1744.340100 1437.449000 L 1740.046200 1436.094900 L 1735.821500 1434.492700 L 1731.677400 1432.642500 L 1727.625600 1430.544200 L 1723.677800 1428.197700 L 1719.845400 1425.603100 L 1716.140200 1422.760300 L 1712.573600 1419.669300 L 1709.157400 1416.330100 L 1705.903100 1412.742600 L 1702.822400 1408.906800 L 1685.515700 1385.987100 L 1662.585200 1416.630600 L 1659.512700 1420.489800 L 1656.264900 1424.100000 L 1652.853500 1427.461200 L 1649.290100 1430.573400 L 1645.586500 1433.436700 L 1641.754300 1436.051000 L 1637.805300 1438.416300 L 1633.751100 1440.532600 L 1629.603400 1442.399900 L 1625.373900 1444.018300 L 1621.074300 1445.387700 L 1616.716200 1446.508100 L 1612.311400 1447.379500 L 1607.871500 1448.002000 L 1603.408300 1448.375400 L 1598.933300 1448.499900 L 1594.458400 1448.375400 L 1589.995100 1448.002000 L 1585.555300 1447.379500 L 1581.150500 1446.508100 L 1576.792400 1445.387700 L 1572.492800 1444.018300 L 1568.263200 1442.399900 L 1564.115500 1440.532600 L 1560.061300 1438.416300 L 1556.112300 1436.051000 L 1552.280100 1433.436700 L 1548.576500 1430.573400 L 1545.013200 1427.461200 L 1541.601700 1424.100000 L 1538.353900 1420.489800 L 1535.281400 1416.630600 L 1530.671200 1410.469700 L 1528.363800 1413.471800 L 1525.141200 1417.174900 L 1521.748000 1420.625900 L 1518.196100 1423.824600 L 1514.497800 1426.771000 L 1510.664900 1429.464900 L 1506.709600 1431.906300 L 1502.643900 1434.095000 L 1498.479700 1436.030900 L 1494.229300 1437.714000 L 1489.904500 1439.144200 L 1485.517400 1440.321300 L 1481.080100 1441.245200 L 1476.604600 1441.915900 L 1472.103000 1442.333300 L 1467.587200 1442.497200 L 1463.069300 1442.407600 L 1458.561400 1442.064400 L 1454.075500 1441.467400 L 1449.623600 1440.616500 L 1445.217800 1439.511700 L 1440.870100 1438.152900 L 1436.592500 1436.539900 L 1432.397100 1434.672800 L 1428.295900 1432.551200 L 1424.300900 1430.175300 L 1420.424300 1427.544800 L 1416.678000 1424.659600 L 1413.074000 1421.519800 L 1409.624400 1418.125100 L 1406.341300 1414.475500 L 1403.236700 1410.570800 L 1400.767900 1407.265200 L 1397.251900 1411.963900 L 1394.179400 1415.823100 L 1390.931600 1419.433300 L 1387.520100 1422.794500 L 1383.956800 1425.906800 L 1380.253200 1428.770000 L 1376.421000 1431.384300 L 1372.472000 1433.749600 L 1368.417800 1435.865900 L 1364.270100 1437.733300 L 1360.040500 1439.351600 L 1355.740900 1440.721000 L 1351.382800 1441.841400 L 1346.978000 1442.712900 L 1342.538200 1443.335300 L 1338.074900 1443.708800 L 1333.600000 1443.833300 L 1329.125000 1443.708800 L 1324.661800 1443.335300 L 1320.221900 1442.712900 L 1315.817100 1441.841400 L 1311.459100 1440.721000 L 1307.159400 1439.351600 L 1302.929900 1437.733300 L 1298.782200 1435.865900 L 1294.728000 1433.749600 L 1290.779000 1431.384300 L 1286.946800 1428.770000 L 1283.243200 1425.906800 L 1279.679800 1422.794500 L 1276.268400 1419.433300 L 1273.020600 1415.823100 L 1269.948100 1411.963900 L 1249.751600 1384.974100 L 1229.762100 1411.505600 L 1226.698300 1415.329500 L 1223.461700 1418.907500 L 1220.063800 1422.239600 L 1216.516100 1425.325700 L 1212.830200 1428.165900 L 1209.017400 1430.760100 L 1205.089200 1433.108200 L 1201.057200 1435.210300 L 1196.932800 1437.066300 L 1192.727600 1438.676300 L 1188.452800 1440.040100 L 1184.120200 1441.157700 L 1179.741100 1442.029200 L 1175.327000 1442.654500 L 1170.889400 1443.033600 L 1166.439700 1443.166400 L 1161.989600 1443.053000 L 1157.550400 1442.693200 L 1153.133600 1442.087200 L 1148.750700 1441.234700 L 1144.413300 1440.136000 L 1140.132600 1438.790800 L 1135.920400 1437.199200 L 1131.787900 1435.361100 L 1127.746800 1433.276600 L 1123.808500 1430.945600 L 1119.984400 1428.368100 L 1116.286100 1425.544000 L 1112.725100 1422.473300 L 1109.312700 1419.156100 L 1106.060600 1415.592200 L 1102.980100 1411.781700 L 1082.691000 1385.095200 L 1062.585200 1411.963900 L 1059.512700 1415.823100 L 1056.264900 1419.433300 L 1052.853500 1422.794500 L 1049.290100 1425.906800 L 1045.586500 1428.770000 L 1041.754300 1431.384300 L 1037.805300 1433.749600 L 1033.751100 1435.865900 L 1029.603400 1437.733300 L 1025.373900 1439.351600 L 1021.074200 1440.721000 L 1016.716200 1441.841400 L 1012.311400 1442.712900 L 1007.871500 1443.335300 L 1003.408200 1443.708800 L 998.933300 1443.833300 L 994.458400 1443.708800 L 989.995100 1443.335300 L 985.555300 1442.712900 L 981.150400 1441.841400 L 976.792400 1440.721000 L 972.492700 1439.351600 L 968.263200 1437.733300 L 964.115500 1435.865900 L 960.061300 1433.749600 L 956.112300 1431.384300 L 952.280100 1428.770000 L 948.576500 1425.906800 L 945.013200 1422.794500 L 941.601700 1419.433300 L 938.353900 1415.823100 L 935.281400 1411.963900 L 915.266600 1385.216900 L 895.251900 1411.963900 L 892.179400 1415.823100 L 888.931500 1419.433300 L 885.520100 1422.794500 L 881.956700 1425.906800 L 878.253100 1428.770000 L 874.421000 1431.384300 L 870.472000 1433.749600 L 866.417700 1435.865900 L 862.270000 1437.733300 L 858.040500 1439.351600 L 853.740900 1440.721000 L 849.382800 1441.841400 L 844.978000 1442.712900 L 840.538100 1443.335300 L 836.074900 1443.708800 L 831.600000 1443.833300 L 827.125000 1443.708800 L 822.661800 1443.335300 L 818.221900 1442.712900 L 813.817100 1441.841400 L 809.459000 1440.721000 L 805.159400 1439.351600 L 800.929900 1437.733300 L 796.782200 1435.865900 L 792.728000 1433.749600 L 788.779000 1431.384300 L 784.946800 1428.770000 L 781.243200 1425.906800 L 777.679800 1422.794500 L 774.268400 1419.433300 L 771.020600 1415.823100 L 767.948000 1411.963900 L 747.501300 1384.639700 L 727.762100 1410.839000 L 724.689800 1414.672900 L 721.444000 1418.259500 L 718.036300 1421.598800 L 714.478300 1424.690600 L 710.781600 1427.535200 L 706.957600 1430.132400 L 703.018100 1432.482200 L 698.974500 1434.584700 L 694.838300 1436.439800 L 690.621300 1438.047600 L 686.334800 1439.408000 L 681.990600 1440.521100 L 677.600000 1441.386800 L 673.174800 1442.005200 L 668.726500 1442.376300 L 664.266600 1442.499900 L 659.806700 1442.376300 L 655.358400 1442.005200 L 650.933200 1441.386800 L 646.542700 1440.521100 L 642.198400 1439.408000 L 637.912000 1438.047600 L 633.694900 1436.439800 L 629.558800 1434.584700 L 625.515200 1432.482200 L 621.575600 1430.132400 L 617.751700 1427.535200 L 614.054900 1424.690600 L 610.497000 1421.598800 L 607.089300 1418.259500 L 603.843500 1414.672900 L 600.771200 1410.839000 L 583.034200 1387.297200 L 560.585200 1417.297300 L 557.512700 1421.156500 L 554.264900 1424.766700 L 550.853400 1428.127900 L 547.290100 1431.240100 L 543.586500 1434.103400 L 539.754300 1436.717600 L 535.805300 1439.082900 L 531.751100 1441.199300 L 527.603400 1443.066600 L 523.373900 1444.685000 L 519.074200 1446.054400 L 514.716200 1447.174800 L 510.311300 1448.046200 L 505.871500 1448.668600 L 501.408200 1449.042100 L 496.933300 1449.166600 L 492.458400 1449.042100 L 487.995100 1448.668600 L 483.555200 1448.046200 L 479.150400 1447.174800 L 474.792400 1446.054400 L 470.492700 1444.685000 L 466.263200 1443.066600 L 462.115500 1441.199300 L 458.061300 1439.082900 L 454.112300 1436.717600 L 450.280100 1434.103400 L 446.576500 1431.240100 L 443.013100 1428.127900 L 439.601700 1424.766700 L 436.353900 1421.156500 L 433.281400 1417.297300 L 410.832400 1387.297200 L 393.095400 1410.839000 L 390.023100 1414.672900 L 386.777300 1418.259500 L 383.369600 1421.598800 L 379.811600 1424.690600 L 376.114900 1427.535200 L 372.291000 1430.132400 L 368.351400 1432.482200 L 364.307800 1434.584700 L 360.171700 1436.439800 L 355.954600 1438.047600 L 351.668100 1439.408000 L 347.323900 1440.521100 L 342.933400 1441.386800 L 338.508200 1442.005200 L 334.059800 1442.376300 L 329.600000 1442.499900 L 325.140100 1442.376300 L 320.691700 1442.005200 L 316.266500 1441.386800 L 311.876000 1440.521100 L 307.531800 1439.408000 L 303.245300 1438.047600 L 299.028200 1436.439800 L 294.892100 1434.584700 L 290.848500 1432.482200 L 286.908900 1430.132400 L 283.085000 1427.535200 L 279.388300 1424.690600 L 275.830300 1421.598800 L 272.422600 1418.259500 L 269.176800 1414.672900 L 266.104500 1410.839000 L 246.365200 1384.639600 L 225.918500 1411.963900 L 222.846000 1415.823100 L 219.598200 1419.433300 L 216.186800 1422.794500 L 212.623400 1425.906800 L 208.919800 1428.770000 L 205.087600 1431.384300 L 201.138600 1433.749600 L 197.084400 1435.865900 L 192.936700 1437.733300 L 188.707200 1439.351600 L 184.407500 1440.721000 L 180.049500 1441.841400 L 175.644700 1442.712900 L 171.204800 1443.335300 L 166.741500 1443.708800 L 162.266600 1443.833300 L 157.791700 1443.708800 L 153.328400 1443.335300 L 148.888600 1442.712900 L 144.483700 1441.841400 L 140.125700 1440.721000 L 135.826000 1439.351600 L 131.596500 1437.733300 L 127.448800 1435.865900 L 123.394600 1433.749600 L 119.445600 1431.384300 L 115.613400 1428.770000 L 111.909800 1425.906800 L 108.346500 1422.794500 L 104.935000 1419.433300 L 101.687200 1415.823100 L 98.614700 1411.963900 L 25.281400 1313.963900 L 21.646600 1308.674300 L 18.464800 1303.136200 L 15.745800 1297.379100 L 13.499300 1291.432300 L 11.735000 1285.325000 L 10.462800 1279.086500 L 9.692300 1272.746200 L 9.433300 1266.333300 L 9.433300 1170.999900 L 9.691200 1164.600100 L 10.458600 1158.272500 L 11.725700 1152.046100 L 13.482900 1145.950000 L 15.720600 1140.013500 L 18.429000 1134.265600 L 21.598500 1128.735500 L 23.013400 1126.671000 L 21.866300 1125.021400 L 18.628400 1119.447800 L 15.860900 1113.649100 L 13.573900 1107.655500 L 11.777500 1101.497000 L 10.481900 1095.203700 L 9.697100 1088.805800 L 9.433300 1082.333300 L 9.433300 986.999900 L 9.692300 980.587000 L 10.462800 974.246700 L 11.735000 968.008200 L 13.499300 961.900900 L 15.745800 955.954000 L 18.464800 950.196900 L 21.646600 944.658900 L 25.281400 939.369200 L 98.614700 841.369200 L 101.687200 837.510000 L 104.935000 833.899900 L 108.346500 830.538600 L 111.909800 827.426400 L 115.613400 824.563100 L 119.445600 821.948900 L 123.394600 819.583600 L 127.448800 817.467200 L 131.596500 815.599900 L 135.826000 813.981500 L 140.125700 812.612100 L 144.483700 811.491700 L 148.888600 810.620300 L 153.328400 809.997900 L 157.791700 809.624400 L 162.266600 809.499900 L 166.741500 809.624400 L 171.204800 809.997900 L 175.644700 810.620300 L 180.049500 811.491700 L 184.407500 812.612100 L 188.707200 813.981500 L 192.936700 815.599900 L 197.084400 817.467200 L 201.138600 819.583600 L 205.087600 821.948900 L 208.919800 824.563100 L 212.623400 827.426400 L 216.186800 830.538600 L 219.598200 833.899900 L 222.846000 837.510000 L 225.918500 841.369200 L 245.933300 868.116200 L 265.948000 841.369200 L 269.020500 837.510000 L 272.268400 833.899900 L 275.679800 830.538600 L 279.243200 827.426400 L 282.946800 824.563100 L 286.778900 821.948900 L 290.728000 819.583600 L 294.782200 817.467200 L 298.929900 815.599900 L 303.159400 813.981500 L 307.459000 812.612100 L 311.817100 811.491700 L 316.221900 810.620300 L 320.661800 809.997900 L 325.125000 809.624400 L 329.600000 809.499900 L 334.074900 809.624400 L 338.538100 809.997900 L 342.978000 810.620300 L 347.382800 811.491700 L 351.740900 812.612100 L 356.040500 813.981500 L 360.270000 815.599900 L 364.417700 817.467200 L 368.471900 819.583600 L 372.421000 821.948900 L 376.253100 824.563100 L 376.537300 824.782800 L 376.901600 824.503400 L 381.846100 821.258100 L 387.006500 818.382900 L 392.356200 815.886900 L 397.868400 813.779300 L 403.516500 812.069200 L 409.274100 810.765600 L 415.114300 809.877700 L 421.010500 809.414500 L 426.936200 809.385300 Z M 423.600000 1271.666600 L 496.933300 1369.666600 L 570.266600 1271.666600 L 570.266600 1176.333300 L 501.600000 1084.333300 L 501.600000 989.666600 L 423.600000 888.999900 Z M 1598.933300 986.333200 L 1525.600000 888.999900 L 1525.600000 1270.999900 L 1598.933300 1368.999900 L 1672.266700 1270.999900 L 1672.266700 888.999900 Z M 1260.266600 986.999900 L 1260.266600 1266.333300 L 1333.600000 1364.333300 L 1406.933300 1266.333300 L 1406.933300 1170.999900 L 1373.600000 1126.333300 L 1406.933300 1081.666600 L 1406.933300 986.999900 L 1333.600000 888.999900 Z M 925.600000 986.999900 L 925.600000 1082.333300 L 958.933300 1126.333300 L 925.600000 1170.999900 L 925.600000 1266.333300 L 998.933300 1364.333300 L 1072.266600 1266.333300 L 1072.266600 1170.999900 L 1038.933300 1126.999900 L 1072.266600 1082.333300 L 1072.266600 986.999900 L 998.933300 888.999900 Z M 758.266600 986.999900 L 758.266600 1266.333300 L 831.600000 1364.333300 L 904.933300 1266.333300 L 904.933300 1170.999900 L 871.600000 1126.333300 L 904.933300 1081.666600 L 904.933300 986.999900 L 831.600000 888.999900 Z M 88.933300 986.999900 L 88.933300 1082.333300 L 122.266600 1126.333300 L 88.933300 1170.999900 L 88.933300 1266.333300 L 162.266600 1364.333300 L 235.599900 1266.333300 L 235.599900 1170.999900 L 202.266600 1126.999900 L 235.599900 1082.333300 L 235.599900 986.999900 L 162.266600 888.999900 Z M 1126.933300 941.666600 L 1126.933300 1168.333300 L 1092.266600 1168.333300 L 1092.266600 1266.333300 L 1166.266600 1363.666600 L 1239.600000 1266.333300 L 1239.600000 1168.333300 L 1204.933300 1168.333300 L 1204.933300 941.666600 L 1166.266600 889.666600 Z M 1427.600000 940.999900 L 1427.600000 1310.333300 L 1466.933300 1362.999900 L 1504.933300 1310.333300 L 1504.933300 940.999900 L 1466.933300 888.999900 Z M 590.933300 986.999900 L 590.933300 1081.666600 L 624.266600 1126.333300 L 590.933300 1170.333300 L 590.933300 1265.666600 L 664.266600 1362.999900 L 737.600000 1265.666600 L 737.600000 1170.333300 L 704.266600 1126.333300 L 737.600000 1081.666600 L 737.600000 986.999900 L 664.266600 888.999900 Z M 256.266600 986.999900 L 256.266600 1265.666600 L 329.600000 1362.999900 L 402.933300 1265.666600 L 402.933300 986.999900 L 329.600000 888.999900 Z M 1763.600000 889.666600 L 1692.266700 984.999900 L 1692.266700 1262.999900 L 1766.266700 1360.999900 L 1839.600000 1262.999900 L 1839.600000 1214.333300 L 1774.933300 1128.333300 L 1839.600000 1128.333300 L 1839.600000 889.666600 Z M 492.266600 992.999900 L 492.266600 1087.666600 L 561.600000 1179.666600 L 561.600000 1268.333300 L 496.933300 1354.333300 L 432.266600 1268.333300 L 432.266600 914.999900 Z M 1662.933300 1268.333300 L 1598.933300 1353.666600 L 1534.266700 1268.333300 L 1534.266700 915.666600 L 1594.266700 995.666600 L 1594.266700 1269.666600 L 1602.933300 1269.666600 L 1602.933300 996.333200 L 1662.933300 915.666600 Z M 1063.600000 989.666600 L 1063.600000 1078.999900 L 994.266600 1170.999900 L 994.266600 1264.999900 L 1003.600000 1264.999900 L 1003.600000 1174.333300 L 1033.600000 1133.666600 L 1063.600000 1174.333300 L 1063.600000 1262.999900 L 998.933300 1349.666600 L 934.266600 1262.999900 L 934.266600 1174.333300 L 1003.600000 1082.333300 L 1003.600000 988.333200 L 994.266600 988.333200 L 994.266600 1078.999900 L 964.266600 1118.999900 L 934.266600 1078.999900 L 934.266600 989.666600 L 998.933300 903.666600 Z M 226.933300 989.666600 L 226.933300 1078.999900 L 157.599900 1170.999900 L 157.599900 1264.999900 L 166.933300 1264.999900 L 166.933300 1174.333300 L 196.933300 1133.666600 L 226.933300 1174.333300 L 226.933300 1262.999900 L 162.266600 1349.666600 L 97.599900 1262.999900 L 97.599900 1174.333300 L 166.933300 1082.333300 L 166.933300 988.333200 L 157.599900 988.333200 L 157.599900 1078.999900 L 127.599900 1118.999900 L 97.599900 1078.999900 L 97.599900 989.666600 L 162.266600 903.666600 Z M 1398.266700 989.666600 L 1398.266700 1078.999900 L 1362.266700 1126.333300 L 1398.266700 1174.333300 L 1398.266700 1262.999900 L 1333.600000 1348.999900 L 1268.933300 1262.999900 L 1268.933300 989.666600 L 1328.933300 909.666600 L 1328.933300 1080.333300 L 1338.266600 1080.333300 L 1338.266600 909.666600 Z M 1195.600000 944.999900 L 1195.600000 1176.999900 L 1230.266600 1176.999900 L 1230.266600 1262.999900 L 1166.266600 1348.999900 L 1101.600000 1262.999900 L 1101.600000 1176.999900 L 1136.266600 1176.999900 L 1136.266600 944.999900 L 1166.266600 904.999900 Z M 896.266600 989.666600 L 896.266600 1078.999900 L 860.266600 1126.333300 L 896.266600 1174.333300 L 896.266600 1262.999900 L 831.600000 1348.999900 L 766.933300 1262.999900 L 766.933300 989.666600 L 826.933300 909.666600 L 826.933300 1080.333300 L 836.266600 1080.333300 L 836.266600 909.666600 Z M 728.933300 989.666600 L 728.933300 1078.333300 L 698.933300 1118.333300 L 668.933300 1078.333300 L 668.933300 988.333200 L 659.600000 988.333200 L 659.600000 1081.666600 L 692.933300 1126.333300 L 659.600000 1170.333300 L 659.600000 1263.666600 L 668.933300 1263.666600 L 668.933300 1173.666600 L 698.933300 1133.666600 L 728.933300 1173.666600 L 728.933300 1262.333300 L 664.266600 1348.333300 L 599.600000 1262.333300 L 599.600000 1173.666600 L 635.600000 1126.333300 L 599.600000 1078.333300 L 599.600000 989.666600 L 664.266600 903.666600 Z M 1496.266700 943.666600 L 1496.266700 1307.666600 L 1466.933300 1347.666600 L 1436.266700 1307.666600 L 1436.266700 943.666600 L 1466.933300 904.333200 Z M 1830.266700 1119.666600 L 1770.266700 1119.666600 L 1770.266700 986.999900 L 1761.600000 986.999900 L 1761.600000 1262.333300 L 1770.266700 1262.333300 L 1770.266700 1136.999900 L 1830.266700 1216.999900 L 1830.266700 1260.333300 L 1766.266700 1346.333300 L 1701.600000 1260.333300 L 1701.600000 987.666600 L 1768.266700 898.999900 L 1830.266700 898.999900 Z M 394.266600 989.666600 L 394.266600 1262.333300 L 334.266600 1342.333300 L 334.266600 988.333200 L 324.933300 988.333200 L 324.933300 1342.333300 L 264.933300 1262.333300 L 264.933300 989.666600 L 329.600000 903.666600 Z M 492.266600 1178.333300 L 492.266600 1270.333300 L 501.600000 1270.333300 L 501.600000 1178.333300 Z M 1328.933300 1172.333300 L 1328.933300 1264.333300 L 1338.266600 1264.333300 L 1338.266600 1172.333300 Z M 826.933300 1172.333300 L 826.933300 1264.333300 L 836.266600 1264.333300 L 836.266600 1172.333300 Z M 1093.351000 8.761500 L 1099.320700 9.259000 L 1105.259500 10.215500 L 1111.140000 11.640300 L 1116.934800 13.542400 L 1122.616400 15.930800 L 1128.157300 18.814600 L 1133.530300 22.202800 L 1138.707700 26.104600 L 1143.662300 30.528900 L 1148.366500 35.484800 L 1152.793000 40.981500 L 1162.178600 53.639200 L 1172.155700 40.426300 L 1176.609400 34.992200 L 1181.335000 30.096000 L 1186.305400 25.728800 L 1191.493400 21.881400 L 1196.872000 18.544700 L 1202.414100 15.709700 L 1208.092500 13.367400 L 1213.880200 11.508500 L 1219.750000 10.124100 L 1225.674900 9.205000 L 1231.627800 8.742100 L 1237.581500 8.726500 L 1243.509000 9.148900 L 1249.383100 10.000400 L 1255.176800 11.271700 L 1260.862900 12.954000 L 1266.394000 15.030400 L 1269.698800 13.792700 L 1274.022000 12.450500 L 1278.402200 11.359400 L 1282.827500 10.519100 L 1287.286200 9.929600 L 1291.766400 9.590800 L 1296.256300 9.502600 L 1300.744200 9.664900 L 1305.218200 10.077600 L 1309.666500 10.740700 L 1314.077300 11.653900 L 1318.438900 12.817300 L 1322.739400 14.230600 L 1324.676000 14.992500 L 1328.498800 13.566600 L 1334.198000 11.894100 L 1340.004100 10.633900 L 1345.889900 9.795100 L 1351.828100 9.386800 L 1357.791400 9.418000 L 1363.752500 9.897900 L 1369.684300 10.835400 L 1375.559400 12.239600 L 1381.350600 14.119700 L 1387.030600 16.484700 L 1392.572200 19.343700 L 1397.948100 22.705700 L 1403.131000 26.579800 L 1408.093600 30.975200 L 1412.808800 35.900700 L 1417.249200 41.365600 L 1475.913100 119.752700 L 1476.897900 116.372300 L 1479.179800 110.384500 L 1481.941200 104.591000 L 1485.172000 99.021800 L 1488.862300 93.706900 L 1528.195600 41.706900 L 1531.283900 37.868600 L 1534.545800 34.279500 L 1537.969700 30.939600 L 1541.544000 27.848700 L 1545.257100 25.006800 L 1549.097200 22.413800 L 1553.052800 20.069800 L 1557.112100 17.974700 L 1561.263700 16.128400 L 1565.495700 14.530800 L 1569.796500 13.182000 L 1574.154600 12.081900 L 1578.558300 11.230400 L 1582.995800 10.627500 L 1587.455700 10.273100 L 1591.926100 10.167200 L 1596.395600 10.309800 L 1600.852400 10.700800 L 1605.284800 11.340100 L 1609.681300 12.227700 L 1614.030300 13.363500 L 1618.319900 14.747600 L 1622.538700 16.379800 L 1626.674900 18.260100 L 1630.716900 20.388400 L 1634.653200 22.764800 L 1638.471900 25.389200 L 1642.161500 28.261400 L 1645.710300 31.381600 L 1649.106700 34.749500 L 1652.339100 38.365300 L 1655.395700 42.228700 L 1694.062400 94.228700 L 1697.665000 99.503500 L 1700.818200 105.023100 L 1703.512600 110.758800 L 1705.738500 116.681700 L 1707.486500 122.762800 L 1708.746900 128.973300 L 1709.510100 135.284100 L 1709.766700 141.666600 L 1709.766700 302.683800 L 1712.499400 304.627100 L 1715.502700 306.987200 L 1718.387300 309.485900 L 1721.148300 312.118300 L 1723.780700 314.879200 L 1726.279400 317.763900 L 1728.639500 320.767100 L 1730.856000 323.884000 L 1732.923800 327.109600 L 1734.838100 330.438800 L 1736.593800 333.866700 L 1738.185800 337.388300 L 1739.609300 340.998500 L 1740.859200 344.692400 L 1741.930500 348.465000 L 1742.818200 352.311200 L 1743.517300 356.226200 L 1744.022900 360.204800 L 1744.329900 364.242200 L 1744.433300 368.333300 L 1744.433300 466.333300 L 1744.171700 472.779200 L 1743.393300 479.151400 L 1742.108100 485.420200 L 1740.326100 491.555900 L 1738.057200 497.528600 L 1735.311400 503.308800 L 1732.098600 508.866600 L 1728.428800 514.172300 L 1655.095500 611.505600 L 1652.031600 615.329500 L 1648.795000 618.907500 L 1645.397200 622.239600 L 1641.849500 625.325700 L 1638.163500 628.165900 L 1634.350700 630.760100 L 1630.422600 633.108200 L 1626.390600 635.210300 L 1622.266200 637.066300 L 1618.060900 638.676300 L 1613.786200 640.040100 L 1609.453500 641.157700 L 1605.074400 642.029200 L 1600.660300 642.654500 L 1596.222700 643.033600 L 1591.773100 643.166400 L 1587.322900 643.053000 L 1582.883700 642.693200 L 1578.467000 642.087200 L 1574.084100 641.234700 L 1569.746600 640.136000 L 1565.466000 638.790800 L 1561.253700 637.199200 L 1557.121300 635.361100 L 1553.080200 633.276600 L 1549.141800 630.945600 L 1545.317800 628.368100 L 1541.619500 625.544000 L 1538.058400 622.473300 L 1534.646100 619.156100 L 1531.393900 615.592200 L 1528.313400 611.781700 L 1510.822600 588.775800 L 1492.142100 614.750500 L 1489.121700 618.693800 L 1485.919300 622.387700 L 1482.547000 625.832000 L 1479.016700 629.026600 L 1475.340200 631.971300 L 1471.529400 634.666000 L 1467.596300 637.110500 L 1463.552700 639.304600 L 1459.410600 641.248300 L 1455.181800 642.941200 L 1450.878300 644.383400 L 1446.511900 645.574600 L 1442.094500 646.514600 L 1437.638100 647.203300 L 1433.154600 647.640600 L 1428.655800 647.826200 L 1424.153700 647.760100 L 1419.660100 647.442100 L 1415.187000 646.872000 L 1410.746300 646.049600 L 1406.349800 644.974800 L 1402.009400 643.647500 L 1397.737200 642.067400 L 1393.544900 640.234500 L 1389.444500 638.148500 L 1385.447800 635.809300 L 1381.566800 633.216800 L 1377.813400 630.370800 L 1374.199400 627.271100 L 1370.736900 623.917500 L 1367.437600 620.310000 L 1364.313400 616.448400 L 1359.554100 610.188400 L 1357.030500 613.471800 L 1353.807900 617.174900 L 1350.414600 620.625900 L 1346.862800 623.824600 L 1343.164400 626.771000 L 1339.331600 629.464900 L 1335.376300 631.906300 L 1331.310500 634.095000 L 1327.146400 636.030900 L 1322.895900 637.714000 L 1318.571100 639.144200 L 1314.184100 640.321300 L 1309.746800 641.245200 L 1305.271300 641.915900 L 1300.769600 642.333300 L 1296.253900 642.497200 L 1291.736000 642.407600 L 1287.228100 642.064400 L 1282.742200 641.467400 L 1278.290300 640.616500 L 1273.884500 639.511700 L 1269.536700 638.152900 L 1265.259100 636.539900 L 1261.063700 634.672800 L 1256.962500 632.551200 L 1252.967600 630.175300 L 1249.090900 627.544800 L 1245.344600 624.659600 L 1241.740700 621.519800 L 1238.291100 618.125100 L 1235.008000 614.475500 L 1231.903400 610.570800 L 1230.621400 608.854300 L 1225.044300 616.240200 L 1221.954900 620.086000 L 1218.691400 623.682100 L 1215.265300 627.028500 L 1211.688400 630.125300 L 1207.972300 632.972400 L 1204.128800 635.570100 L 1200.169400 637.918200 L 1196.106000 640.016900 L 1191.950100 641.866200 L 1187.713500 643.466100 L 1183.407900 644.816800 L 1179.044900 645.918200 L 1174.636300 646.770400 L 1170.193700 647.373500 L 1165.728800 647.727500 L 1161.253300 647.832500 L 1156.778900 647.688500 L 1152.317200 647.295600 L 1147.880100 646.653700 L 1143.479000 645.763100 L 1139.125800 644.623700 L 1134.832100 643.235500 L 1130.609700 641.598700 L 1126.470100 639.713200 L 1122.425100 637.579100 L 1118.486400 635.196600 L 1114.665600 632.565500 L 1110.974500 629.686100 L 1107.424800 626.558200 L 1104.028000 623.182100 L 1100.795900 619.557700 L 1097.740300 615.685000 L 1076.866300 587.533800 L 1058.585200 611.963900 L 1055.512700 615.823100 L 1052.264900 619.433300 L 1048.853500 622.794500 L 1045.290100 625.906800 L 1041.586500 628.770000 L 1037.754300 631.384300 L 1033.805300 633.749600 L 1029.751100 635.865900 L 1025.603400 637.733300 L 1021.373900 639.351600 L 1017.074200 640.721000 L 1012.716200 641.841400 L 1008.311400 642.712900 L 1003.871500 643.335300 L 999.408200 643.708800 L 994.933300 643.833300 L 990.458400 643.708800 L 985.995100 643.335300 L 981.555300 642.712900 L 977.150400 641.841400 L 972.792400 640.721000 L 968.492700 639.351600 L 964.263200 637.733300 L 960.115500 635.865900 L 956.061300 633.749600 L 952.112300 631.384300 L 948.280100 628.770000 L 944.576500 625.906800 L 941.013200 622.794500 L 937.601700 619.433300 L 934.353900 615.823100 L 931.281400 611.963900 L 857.948000 513.963900 L 854.313300 508.674300 L 851.131500 503.136200 L 848.412500 497.379100 L 846.166000 491.432300 L 844.401700 485.325000 L 843.129500 479.086500 L 842.359000 472.746200 L 842.100000 466.333300 L 842.100000 370.999900 L 842.357900 364.600100 L 843.125300 358.272500 L 844.392400 352.046100 L 846.149600 345.950000 L 848.387300 340.013500 L 851.095700 334.265600 L 854.265100 328.735500 L 855.680000 326.671000 L 854.533000 325.021400 L 851.295100 319.447800 L 848.527600 313.649100 L 846.240600 307.655500 L 844.444200 301.497000 L 843.148600 295.203700 L 842.363800 288.805800 L 842.100000 282.333300 L 842.100000 186.999900 L 842.359000 180.587000 L 843.129500 174.246700 L 844.401700 168.008200 L 846.166000 161.900900 L 848.412500 155.954000 L 851.131500 150.196900 L 854.313300 144.658900 L 857.948000 139.369200 L 931.281400 41.369200 L 934.353900 37.510000 L 937.601700 33.899900 L 941.013200 30.538600 L 944.576500 27.426400 L 948.280100 24.563100 L 952.112300 21.948900 L 956.061300 19.583600 L 960.115500 17.467200 L 964.263200 15.599900 L 968.492700 13.981500 L 972.792400 12.612100 L 977.150400 11.491700 L 981.555300 10.620300 L 985.995100 9.997900 L 990.458400 9.624400 L 994.933300 9.499900 L 999.408200 9.624400 L 1003.871500 9.997900 L 1008.311400 10.620300 L 1012.716200 11.491700 L 1017.074200 12.612100 L 1021.373900 13.981500 L 1025.603400 15.599900 L 1029.751100 17.467200 L 1033.805300 19.583600 L 1037.754300 21.948900 L 1041.428500 24.455300 L 1042.760100 23.451500 L 1047.773300 20.224200 L 1053.002600 17.374700 L 1058.420400 14.911700 L 1063.999400 12.844500 L 1069.712000 11.182100 L 1075.530900 9.933500 L 1081.428700 9.107900 L 1087.377900 8.714200 Z M 266.458000 9.418000 L 272.419200 9.897900 L 278.350900 10.835400 L 284.226100 12.239600 L 290.017300 14.119700 L 295.697300 16.484700 L 301.238800 19.343700 L 306.614700 22.705700 L 311.797600 26.579800 L 316.760300 30.975200 L 321.475400 35.900700 L 325.915900 41.365600 L 381.269900 115.330000 L 436.614700 41.369200 L 439.687200 37.510000 L 442.935000 33.899900 L 446.346500 30.538600 L 449.909800 27.426400 L 453.613400 24.563100 L 457.445600 21.948900 L 461.394600 19.583600 L 465.448800 17.467200 L 469.596500 15.599900 L 473.826100 13.981500 L 478.125700 12.612100 L 482.483800 11.491700 L 486.888600 10.620300 L 491.328400 9.997900 L 495.791700 9.624400 L 500.266600 9.499900 L 504.741600 9.624400 L 509.204800 9.997900 L 513.644700 10.620300 L 518.049500 11.491700 L 522.407600 12.612100 L 526.707200 13.981500 L 530.936700 15.599900 L 535.084400 17.467200 L 539.138600 19.583600 L 543.087600 21.948900 L 546.919800 24.563100 L 550.623400 27.426400 L 554.186800 30.538600 L 557.598200 33.899900 L 560.846000 37.510000 L 563.918500 41.369200 L 583.933300 68.116200 L 603.948000 41.369200 L 607.020600 37.510000 L 610.268400 33.899900 L 613.679800 30.538600 L 617.243200 27.426400 L 620.946800 24.563100 L 624.778900 21.948900 L 628.728000 19.583600 L 632.782200 17.467200 L 636.929900 15.599900 L 641.159400 13.981500 L 645.459000 12.612100 L 649.817100 11.491700 L 654.221900 10.620300 L 658.661800 9.997900 L 663.125000 9.624400 L 667.600000 9.499900 L 672.074900 9.624400 L 676.538100 9.997900 L 680.978000 10.620300 L 685.382800 11.491700 L 689.740900 12.612100 L 694.040500 13.981500 L 698.270000 15.599900 L 702.417700 17.467200 L 706.472000 19.583600 L 710.421000 21.948900 L 714.253100 24.563100 L 717.956700 27.426400 L 721.520100 30.538600 L 724.931500 33.899900 L 728.179400 37.510000 L 731.251900 41.369200 L 804.585200 139.369200 L 808.220000 144.658900 L 811.401800 150.196900 L 814.120800 155.954000 L 816.367300 161.900900 L 818.131600 168.008200 L 819.403800 174.246700 L 820.174300 180.587000 L 820.433300 186.999900 L 820.433300 281.666600 L 820.175400 288.066400 L 819.408000 294.394000 L 818.140900 300.620400 L 816.383600 306.716500 L 814.146000 312.653000 L 811.437600 318.400900 L 808.268100 323.931000 L 806.621700 326.333200 L 808.268100 328.735500 L 811.437600 334.265600 L 814.146000 340.013500 L 816.383600 345.950000 L 818.140900 352.046100 L 819.408000 358.272500 L 820.175400 364.600100 L 820.433300 370.999900 L 820.433300 466.333300 L 820.174300 472.746200 L 819.403800 479.086500 L 818.131600 485.325000 L 816.367300 491.432300 L 814.120800 497.379100 L 811.401800 503.136200 L 808.220000 508.674300 L 804.585200 513.963900 L 731.251900 611.963900 L 728.179400 615.823100 L 724.931500 619.433300 L 721.520100 622.794500 L 717.956700 625.906800 L 714.253100 628.770000 L 710.421000 631.384300 L 706.472000 633.749600 L 702.417700 635.865900 L 698.270000 637.733300 L 694.040500 639.351600 L 689.740900 640.721000 L 685.382800 641.841400 L 680.978000 642.712900 L 676.538100 643.335300 L 672.074900 643.708800 L 667.600000 643.833300 L 663.125000 643.708800 L 658.661800 643.335300 L 654.221900 642.712900 L 649.817100 641.841400 L 645.459000 640.721000 L 641.159400 639.351600 L 636.929900 637.733300 L 632.782200 635.865900 L 628.728000 633.749600 L 624.778900 631.384300 L 620.946800 628.770000 L 617.243200 625.906800 L 613.679800 622.794500 L 610.268400 619.433300 L 607.020600 615.823100 L 603.948000 611.963900 L 583.933300 585.216900 L 563.918500 611.963900 L 560.846000 615.823100 L 557.598200 619.433300 L 554.186800 622.794500 L 550.623400 625.906800 L 546.919800 628.770000 L 543.087600 631.384300 L 539.138600 633.749600 L 535.084400 635.865900 L 530.936700 637.733300 L 526.707200 639.351600 L 522.407600 640.721000 L 518.049500 641.841400 L 513.644700 642.712900 L 509.204800 643.335300 L 504.741600 643.708800 L 500.266600 643.833300 L 495.791700 643.708800 L 491.328400 643.335300 L 486.888600 642.712900 L 482.483800 641.841400 L 478.125700 640.721000 L 473.826100 639.351600 L 469.596500 637.733300 L 465.448800 635.865900 L 461.394600 633.749600 L 457.445600 631.384300 L 453.613400 628.770000 L 449.909800 625.906800 L 446.346500 622.794500 L 442.935000 619.433300 L 439.687200 615.823100 L 436.614700 611.963900 L 419.378300 588.929900 L 400.808700 614.750500 L 397.788300 618.693800 L 394.586000 622.387700 L 391.213700 625.832000 L 387.683300 629.026600 L 384.006800 631.971300 L 380.196100 634.666000 L 376.262900 637.110500 L 372.219400 639.304600 L 368.077200 641.248300 L 363.848400 642.941200 L 359.544900 644.383400 L 355.178500 645.574600 L 350.761200 646.514600 L 346.304800 647.203300 L 341.821200 647.640600 L 337.322400 647.826200 L 332.820300 647.760100 L 328.326800 647.442100 L 323.853600 646.872000 L 319.412900 646.049600 L 315.016400 644.974800 L 310.676100 643.647500 L 306.403800 642.067400 L 302.211500 640.234500 L 298.111100 638.148500 L 294.114400 635.809300 L 290.233400 633.216800 L 286.480000 630.370800 L 282.866100 627.271100 L 279.403500 623.917500 L 276.104200 620.310000 L 272.980100 616.448400 L 198.980100 519.115000 L 195.263500 513.788300 L 192.009300 508.204400 L 189.227700 502.393700 L 186.928900 496.386600 L 185.123200 490.213400 L 183.820800 483.904300 L 183.031900 477.489700 L 182.766600 470.999900 L 182.766600 88.999900 L 183.047300 81.964000 L 183.871100 75.195300 L 185.210700 68.702800 L 187.039000 62.495700 L 189.328600 56.582900 L 192.052200 50.973600 L 195.182700 45.676800 L 198.692800 40.701700 L 202.555100 36.057200 L 206.742500 31.752400 L 211.227600 27.796500 L 215.983200 24.198400 L 220.982100 20.967400 L 226.196900 18.112300 L 231.600500 15.642400 L 237.165500 13.566600 L 242.864700 11.894100 L 248.670800 10.633900 L 254.556500 9.795100 L 260.494700 9.386800 Z M 1353.600000 470.999900 L 1427.600000 568.333300 L 1497.600000 470.999900 L 1497.600000 372.999900 L 1430.933300 283.666600 L 1430.933300 192.333200 L 1353.600000 88.999900 Z M 1161.600000 186.333200 L 1088.933300 88.333200 L 1088.933300 470.333300 L 1161.600000 568.333300 L 1235.600000 470.333300 L 1235.600000 88.333200 Z M 262.266600 470.999900 L 336.266600 568.333300 L 406.266600 470.999900 L 406.266600 372.999900 L 339.600000 283.666600 L 339.600000 192.333200 L 262.266600 88.999900 Z M 921.600000 186.999900 L 921.600000 282.333300 L 954.933300 326.333300 L 921.600000 370.999900 L 921.600000 466.333300 L 994.933300 564.333300 L 1068.266600 466.333300 L 1068.266600 370.999900 L 1034.933300 326.999900 L 1068.266600 282.333300 L 1068.266600 186.999900 L 994.933300 88.999900 Z M 594.266600 186.999900 L 594.266600 466.333300 L 667.600000 564.333300 L 740.933300 466.333300 L 740.933300 370.999900 L 707.600000 326.333300 L 740.933300 281.666600 L 740.933300 186.999900 L 667.600000 88.999900 Z M 426.933300 186.999900 L 426.933300 466.333300 L 500.266600 564.333300 L 573.600000 466.333300 L 573.600000 186.999900 L 500.266600 88.999900 Z M 1552.266700 141.666600 L 1552.266700 368.333300 L 1517.600000 368.333300 L 1517.600000 466.333300 L 1591.600000 563.666600 L 1664.933300 466.333300 L 1664.933300 368.333300 L 1630.266700 368.333300 L 1630.266700 141.666600 L 1591.600000 89.666600 Z M 1256.266600 140.999900 L 1256.266600 510.333300 L 1295.600000 562.999900 L 1333.600000 510.333300 L 1333.600000 140.999900 L 1295.600000 88.999900 Z M 1422.266700 195.666600 L 1422.266700 287.666600 L 1487.600000 372.999900 L 1422.266700 372.999900 L 1422.266700 469.666600 L 1430.933300 469.666600 L 1430.933300 382.333300 L 1488.266700 382.333300 L 1488.266700 467.666600 L 1427.600000 554.333300 L 1362.266700 467.666600 L 1362.266700 115.666600 Z M 330.933300 195.666600 L 330.933300 287.666600 L 396.266600 372.999900 L 330.933300 372.999900 L 330.933300 469.666600 L 339.600000 469.666600 L 339.600000 382.333300 L 396.933300 382.333300 L 396.933300 467.666600 L 336.266600 554.333300 L 270.933300 467.666600 L 270.933300 115.666600 Z M 1059.600000 189.666600 L 1059.600000 278.999900 L 990.266600 370.999900 L 990.266600 464.999900 L 999.600000 464.999900 L 999.600000 374.333300 L 1029.600000 333.666600 L 1059.600000 374.333300 L 1059.600000 462.999900 L 994.933300 549.666600 L 930.266600 462.999900 L 930.266600 374.333300 L 999.600000 282.333300 L 999.600000 188.333200 L 990.266600 188.333200 L 990.266600 278.999900 L 960.266600 318.999900 L 930.266600 278.999900 L 930.266600 189.666600 L 994.933300 103.666600 Z M 1620.933300 144.999900 L 1620.933300 376.999900 L 1655.600000 376.999900 L 1655.600000 462.999900 L 1591.600000 548.999900 L 1526.933300 462.999900 L 1526.933300 376.999900 L 1561.600000 376.999900 L 1561.600000 144.999900 L 1591.600000 104.999900 Z M 732.266600 189.666600 L 732.266600 278.999900 L 696.266600 326.333300 L 732.266600 374.333300 L 732.266600 462.999900 L 667.600000 548.999900 L 602.933300 462.999900 L 602.933300 189.666600 L 662.933300 109.666600 L 662.933300 280.333300 L 672.266600 280.333300 L 672.266600 109.666600 Z M 564.933300 189.666600 L 564.933300 462.999900 L 500.266600 548.999900 L 435.600000 462.999900 L 435.600000 189.666600 L 500.266600 103.666600 Z M 1226.933300 467.666600 L 1166.933300 546.333300 L 1166.933300 280.333300 L 1157.600000 280.333300 L 1157.600000 548.333300 L 1097.600000 467.666600 L 1097.600000 114.999900 L 1161.600000 200.999900 L 1226.933300 114.999900 Z M 1324.933300 143.666600 L 1324.933300 507.666600 L 1295.600000 547.666600 L 1264.933300 507.666600 L 1264.933300 143.666600 L 1295.600000 104.333200 Z M 662.933300 372.333300 L 662.933300 464.333300 L 672.266600 464.333300 L 672.266600 372.333300 Z M 495.600000 188.333200 L 495.600000 464.333300 L 504.933300 464.333300 L 504.933300 188.333200 Z" transform="scale(0.125000,0.125000) translate(501.000000,355.000000)" fill="#df5c43" opacity="1.000000"></path>
        <path d="M 296.733306 2151.999938 L 2635.266694 2151.999938 C 2789.906421 2151.999938 2915.266688 2026.639671 2915.266688 1871.999945 L 2915.266688 295.999993 C 2915.266688 141.360267 2789.906421 16.000000 2635.266694 16.000000 L 296.733306 16.000000 C 142.093579 16.000000 16.733312 141.360267 16.733312 295.999993 L 16.733312 1871.999945 C 16.733312 2026.639671 142.093579 2151.999938 296.733306 2151.999938 Z M 296.733306 2071.999938 C 186.276359 2071.999938 96.733312 1982.456891 96.733312 1871.999945 L 96.733312 295.999993 C 96.733312 185.543047 186.276359 96.000000 296.733306 96.000000 L 2635.266694 96.000000 C 2745.723641 96.000000 2835.266688 185.543047 2835.266688 295.999993 L 2835.266688 1871.999945 C 2835.266688 1982.456891 2745.723641 2071.999938 2635.266694 2071.999938 L 296.733306 2071.999938 Z" transform="scale(0.125000,0.125000) translate(2.000000,0.000000)" fill="#df5c43" opacity="1.000000"></path>
    </g>
</svg>